<svg preserveAspectRatio="none" width="100%" height="100%" overflow="visible" style="display: block;" viewBox="0 0 105 23" fill="none" xmlns="http://www.w3.org/2000/svg">
<g id="Group">
<path id="Vector" d="M0.000232405 6.43612H6.43641V16.0904H0.000232405V6.43612ZM6.43641 22.5266V16.0904H22.5269V22.5266H6.43641ZM6.43641 6.43612V-6.0834e-05H22.5269V6.43612H6.43641Z" fill="var(--fill-0, #001F33)"/>
<path id="Vector_2" d="M27.3546 4.82707H32.1817V17.6994H27.3546V4.82707ZM32.1817 22.5266V17.6994H49.8812V22.5266H32.1817ZM32.1817 4.82707V-6.0834e-05H49.8812V4.82707H32.1817Z" fill="var(--fill-0, #001F33)"/>
<path id="Vector_3" d="M82.0617 1.60898V-6.0834e-05H92.5205V1.60898H82.0617ZM94.1295 1.60898V-6.0834e-05H104.588V1.60898H94.1295ZM82.0617 22.5266V20.9175H92.5205V22.5266H82.0617ZM94.1295 22.5266V20.9175H104.588V22.5266H94.1295ZM92.5205 1.60898H94.1295V20.9175H92.5205V1.60898Z" fill="var(--fill-0, #001F33)"/>
<path id="Vector_4" d="M74.0159 -6.0834e-05V3.21803H57.9254V-6.0834e-05H74.0159ZM74.0159 3.21803V11.2633H57.9254V3.21803H54.7073V22.5266H57.9254V14.4813H74.0159V22.5266H77.234V3.21803H74.0159Z" fill="var(--fill-0, #001F33)"/>
</g>
</svg>
