<svg width="235" height="28" viewBox="0 0 235 28" fill="none" xmlns="http://www.w3.org/2000/svg">
<rect width="235" height="28" fill="white"/>
<path d="M0 9.14712H6.43618V18.8014H0V9.14712ZM6.43618 25.2376V18.8014H22.5266V25.2376H6.43618ZM6.43618 9.14712V2.71094H22.5266V9.14712H6.43618Z" fill="#001F33"/>
<path d="M27.3545 7.53807H32.1816V20.4104H27.3545V7.53807ZM32.1816 25.2376V20.4104H49.8811V25.2376H32.1816ZM32.1816 7.53807V2.71094H49.8811V7.53807H32.1816Z" fill="#001F33"/>
<path d="M82.0615 4.31998V2.71094H92.5203V4.31998H82.0615ZM94.1294 4.31998V2.71094H104.588V4.31998H94.1294ZM82.0615 25.2376V23.6285H92.5203V25.2376H82.0615ZM94.1294 25.2376V23.6285H104.588V25.2376H94.1294ZM92.5203 4.31998H94.1294V23.6285H92.5203V4.31998Z" fill="#001F33"/>
<path d="M74.0156 2.71094V5.92903H57.9251V2.71094H74.0156ZM74.0156 5.92903V13.9743H57.9251V5.92903H54.707V25.2376H57.9251V17.1923H74.0156V25.2376H77.2337V5.92903H74.0156Z" fill="#001F33"/>
<path d="M120.042 11.1979C119.441 11.1979 118.891 11.0935 118.395 10.8846C117.899 10.6758 117.466 10.3772 117.102 9.98886C116.737 9.60051 116.455 9.14072 116.254 8.61132C116.054 8.08192 115.953 7.50123 115.953 6.86741C115.953 6.2336 116.058 5.69504 116.266 5.17847C116.475 4.66189 116.765 4.20943 117.138 3.81925C117.51 3.4309 117.948 3.12682 118.448 2.91066C118.948 2.69451 119.492 2.58643 120.077 2.58643C120.469 2.58643 120.861 2.64871 121.249 2.77328C121.637 2.89784 121.993 3.07003 122.313 3.28985C122.634 3.50967 122.898 3.76063 123.106 4.0409L122.361 4.81027C122.152 4.5703 121.921 4.36514 121.67 4.19661C121.417 4.02808 121.157 3.89802 120.888 3.80643C120.619 3.71483 120.35 3.66904 120.077 3.66904C119.644 3.66904 119.243 3.74964 118.875 3.90901C118.507 4.07021 118.188 4.29186 117.919 4.5758C117.649 4.85973 117.439 5.19678 117.287 5.58513C117.135 5.97348 117.058 6.4003 117.058 6.86559C117.058 7.33087 117.135 7.787 117.287 8.18817C117.439 8.58934 117.653 8.93189 117.93 9.21582C118.206 9.49976 118.534 9.71958 118.915 9.87162C119.296 10.0237 119.719 10.1006 120.183 10.1006C120.463 10.1006 120.742 10.0621 121.018 9.98702C121.295 9.91192 121.549 9.80018 121.782 9.65729C122.015 9.51258 122.218 9.34405 122.396 9.15171L122.949 10.042C122.757 10.2581 122.506 10.4541 122.198 10.63C121.89 10.8059 121.546 10.9451 121.17 11.0458C120.793 11.1466 120.417 11.196 120.04 11.196L120.042 11.1979Z" fill="#001F33"/>
<path d="M129.747 7.68769C129.764 7.24622 129.703 6.84138 129.568 6.47318C129.43 6.10499 129.236 5.78441 128.985 5.51147C128.732 5.23853 128.43 5.02604 128.076 4.874C127.723 4.72196 127.34 4.64502 126.922 4.64502C126.466 4.64502 126.043 4.72745 125.655 4.89231C125.265 5.05718 124.933 5.28616 124.656 5.58292C124.38 5.87967 124.164 6.23138 124.006 6.63622C123.85 7.04105 123.773 7.48619 123.773 7.97529C123.773 8.6091 123.911 9.16598 124.187 9.64775C124.464 10.1277 124.847 10.5069 125.336 10.7835C125.825 11.0601 126.389 11.1975 127.03 11.1975C127.335 11.1975 127.642 11.1553 127.95 11.0711C128.26 10.9868 128.545 10.8732 128.809 10.7285C129.075 10.5838 129.298 10.4208 129.483 10.2358L128.954 9.49021C128.617 9.77964 128.309 9.97564 128.029 10.0801C127.749 10.1845 127.452 10.2358 127.139 10.2358C126.666 10.2358 126.256 10.1405 125.906 9.94817C125.558 9.75582 125.287 9.48472 125.094 9.13667C124.937 8.8509 124.845 8.52483 124.818 8.15664H129.736L129.747 7.68769ZM125.059 6.6527C125.228 6.31748 125.47 6.06102 125.787 5.88333C126.104 5.70748 126.481 5.61955 126.922 5.61955C127.259 5.61955 127.558 5.69466 127.818 5.8412C128.078 5.98958 128.285 6.18742 128.437 6.43105C128.589 6.67652 128.677 6.93847 128.701 7.21874V7.303H124.854C124.896 7.05937 124.964 6.84322 125.059 6.6527Z" fill="#001F33"/>
<path d="M136.481 7.25526V11.0783H135.446V7.31387C135.446 6.92186 135.395 6.59762 135.29 6.34117C135.186 6.08471 135.027 5.89603 134.811 5.77513C134.593 5.65606 134.329 5.59928 134.015 5.60844C133.752 5.60844 133.512 5.6524 133.296 5.74033C133.078 5.82826 132.889 5.94549 132.724 6.09387C132.559 6.24225 132.433 6.41627 132.345 6.61778C132.257 6.81745 132.213 7.02994 132.213 7.25526V11.0783H131.167V4.78961H132.2L132.22 5.81543C132.301 5.67988 132.403 5.54982 132.526 5.42709C132.757 5.19444 133.034 5.00759 133.354 4.86837C133.675 4.72732 134.008 4.65771 134.353 4.65771C134.825 4.65771 135.221 4.74931 135.538 4.93432C135.853 5.11934 136.089 5.40327 136.247 5.78796C136.402 6.17264 136.481 6.66174 136.481 7.25526Z" fill="#001F33"/>
<path d="M141.539 4.78926V5.78761H140V11.0779H138.965V5.78761H137.595V4.78926H138.965V3.15527H140V4.78926H141.539Z" fill="#001F33"/>
<path d="M146.337 4.76579L146.061 5.90886C145.956 5.86856 145.848 5.83559 145.737 5.81177C145.625 5.78796 145.517 5.77513 145.412 5.77513C145.163 5.77513 144.934 5.82093 144.727 5.91435C144.518 6.00595 144.341 6.13417 144.192 6.29904C144.044 6.46207 143.927 6.65075 143.843 6.86324C143.758 7.07573 143.716 7.30288 143.716 7.54285V11.0783H142.659V4.78961H143.705L143.712 5.97847C143.797 5.78979 143.908 5.61393 144.048 5.4509C144.251 5.21093 144.493 5.01859 144.769 4.87388C145.046 4.72916 145.339 4.65771 145.652 4.65771C145.788 4.65771 145.916 4.66687 146.037 4.68702C146.158 4.70717 146.257 4.73465 146.337 4.76579Z" fill="#001F33"/>
<path d="M152.772 7.68769C152.787 7.24622 152.727 6.84138 152.591 6.47318C152.455 6.10499 152.261 5.78441 152.008 5.51147C151.756 5.23853 151.453 5.02604 151.1 4.874C150.748 4.72196 150.363 4.64502 149.946 4.64502C149.49 4.64502 149.067 4.72745 148.678 4.89231C148.29 5.05718 147.956 5.28616 147.68 5.58292C147.403 5.87967 147.187 6.23138 147.031 6.63622C146.874 7.04105 146.797 7.48619 146.797 7.97529C146.797 8.6091 146.934 9.16598 147.211 9.64775C147.487 10.1277 147.87 10.5069 148.359 10.7835C148.849 11.0601 149.413 11.1975 150.054 11.1975C150.36 11.1975 150.666 11.1553 150.973 11.0711C151.283 10.9868 151.569 10.8732 151.834 10.7285C152.098 10.5838 152.322 10.4208 152.507 10.2358L151.977 9.49021C151.642 9.77964 151.332 9.97564 151.052 10.0801C150.772 10.1845 150.475 10.2358 150.162 10.2358C149.689 10.2358 149.279 10.1405 148.931 9.94817C148.581 9.75582 148.312 9.48472 148.119 9.13667C147.962 8.8509 147.868 8.52483 147.841 8.15664H152.759L152.772 7.68769ZM148.083 6.6527C148.251 6.31748 148.493 6.06102 148.81 5.88333C149.127 5.70748 149.506 5.61955 149.946 5.61955C150.283 5.61955 150.581 5.69466 150.842 5.8412C151.102 5.98958 151.309 6.18742 151.461 6.43105C151.613 6.67652 151.701 6.93847 151.726 7.21874V7.303H147.879C147.92 7.05937 147.988 6.84322 148.083 6.6527Z" fill="#001F33"/>
<path d="M159.807 3.92565V4.86172H161.37V5.82343H159.807V11.079H158.761V5.82343H157.691V4.86172H158.761V3.92565C158.761 3.5886 158.834 3.29184 158.983 3.03539C159.131 2.77893 159.338 2.5756 159.602 2.42905C159.868 2.28067 160.172 2.20557 160.516 2.20557C160.773 2.20557 161.007 2.25319 161.22 2.35028C161.432 2.44553 161.606 2.57376 161.743 2.73496L161.383 3.54097C161.269 3.42007 161.143 3.33031 161.003 3.26986C160.862 3.20941 160.732 3.1801 160.613 3.1801C160.435 3.1801 160.287 3.20758 160.168 3.26436C160.047 3.31932 159.957 3.40358 159.897 3.51716C159.836 3.6289 159.807 3.76445 159.807 3.92565Z" fill="#001F33"/>
<path d="M165.366 11.1967C164.741 11.1967 164.186 11.0539 163.701 10.7699C163.215 10.486 162.834 10.0958 162.558 9.60304C162.281 9.11028 162.144 8.54791 162.144 7.9141C162.144 7.28028 162.281 6.71974 162.558 6.23064C162.834 5.74154 163.215 5.35686 163.701 5.07659C164.186 4.79632 164.741 4.65527 165.366 4.65527C165.99 4.65527 166.522 4.79632 167.007 5.07659C167.492 5.35686 167.875 5.74154 168.156 6.23064C168.436 6.71974 168.577 7.28028 168.577 7.9141C168.577 8.54791 168.436 9.11028 168.156 9.60304C167.875 10.0958 167.492 10.4842 167.007 10.7699C166.522 11.0557 165.976 11.1967 165.366 11.1967ZM165.366 10.235C165.774 10.235 166.141 10.1324 166.465 9.92911C166.789 9.72395 167.044 9.44917 167.229 9.09929C167.414 8.75124 167.505 8.35557 167.505 7.91593C167.505 7.47629 167.414 7.08062 167.229 6.73257C167.044 6.38452 166.789 6.11157 166.465 5.91557C166.141 5.71956 165.774 5.62065 165.366 5.62065C164.957 5.62065 164.576 5.72139 164.248 5.92106C163.92 6.12073 163.664 6.39368 163.479 6.73806C163.294 7.08245 163.202 7.47629 163.202 7.91593C163.202 8.35557 163.294 8.75124 163.479 9.09929C163.664 9.44734 163.92 9.72395 164.248 9.92911C164.576 10.1343 164.95 10.235 165.366 10.235Z" fill="#001F33"/>
<path d="M173.65 4.76579L173.373 5.90886C173.269 5.86856 173.161 5.83559 173.049 5.81177C172.937 5.78796 172.828 5.77513 172.725 5.77513C172.476 5.77513 172.247 5.82093 172.04 5.91435C171.831 6.00595 171.651 6.13417 171.505 6.29904C171.357 6.46207 171.239 6.65075 171.155 6.86324C171.071 7.07573 171.029 7.30288 171.029 7.54285V11.0783H169.972V4.78961H171.018L171.025 5.97664C171.109 5.78796 171.221 5.6121 171.36 5.4509C171.564 5.21093 171.805 5.01859 172.082 4.87388C172.359 4.72916 172.652 4.65771 172.965 4.65771C173.1 4.65771 173.229 4.66687 173.35 4.68702C173.47 4.70717 173.569 4.73465 173.65 4.76579Z" fill="#001F33"/>
<path d="M182.378 11.1979C181.777 11.1979 181.227 11.0935 180.731 10.8846C180.234 10.6758 179.802 10.3772 179.438 9.98886C179.073 9.60051 178.791 9.14072 178.589 8.61132C178.39 8.08192 178.289 7.50123 178.289 6.86741C178.289 6.2336 178.393 5.69504 178.602 5.17847C178.811 4.66189 179.101 4.20943 179.474 3.81925C179.846 3.4309 180.284 3.12682 180.784 2.91066C181.284 2.69451 181.828 2.58643 182.413 2.58643C182.805 2.58643 183.197 2.64871 183.585 2.77328C183.973 2.89784 184.329 3.07003 184.649 3.28985C184.97 3.50967 185.234 3.76063 185.442 4.0409L184.697 4.81027C184.488 4.5703 184.257 4.36514 184.006 4.19661C183.753 4.02808 183.493 3.89802 183.224 3.80643C182.955 3.71483 182.685 3.66904 182.413 3.66904C181.98 3.66904 181.579 3.74964 181.211 3.90901C180.843 4.07021 180.524 4.29186 180.255 4.5758C179.985 4.85973 179.775 5.19678 179.623 5.58513C179.471 5.97348 179.394 6.4003 179.394 6.86559C179.394 7.33087 179.471 7.787 179.623 8.18817C179.775 8.58934 179.989 8.93189 180.266 9.21582C180.542 9.49976 180.87 9.71958 181.251 9.87162C181.632 10.0237 182.055 10.1006 182.519 10.1006C182.799 10.1006 183.077 10.0621 183.354 9.98702C183.631 9.91192 183.885 9.80018 184.118 9.65729C184.351 9.51258 184.554 9.34405 184.732 9.15171L185.285 10.042C185.092 10.2581 184.842 10.4541 184.534 10.63C184.226 10.8059 183.882 10.9451 183.506 11.0458C183.129 11.1466 182.753 11.196 182.376 11.196L182.378 11.1979Z" fill="#001F33"/>
<path d="M190.269 4.76579L189.993 5.90886C189.888 5.86856 189.78 5.83559 189.668 5.81177C189.557 5.78796 189.448 5.77513 189.344 5.77513C189.095 5.77513 188.868 5.82093 188.659 5.91435C188.45 6.00595 188.272 6.13417 188.124 6.29904C187.976 6.46207 187.858 6.65075 187.774 6.86324C187.69 7.07573 187.648 7.30288 187.648 7.54285V11.0783H186.591V4.78961H187.637L187.644 5.97847C187.728 5.78979 187.84 5.61393 187.979 5.4509C188.183 5.21093 188.424 5.01859 188.701 4.87388C188.978 4.72916 189.273 4.65771 189.584 4.65771C189.72 4.65771 189.848 4.66687 189.969 4.68702C190.09 4.70717 190.189 4.73465 190.269 4.76579Z" fill="#001F33"/>
<path d="M196.705 7.68769C196.72 7.24622 196.661 6.84138 196.524 6.47318C196.388 6.10499 196.194 5.78441 195.941 5.51147C195.688 5.23853 195.386 5.02604 195.032 4.874C194.681 4.72196 194.296 4.64502 193.878 4.64502C193.422 4.64502 192.999 4.72745 192.611 4.89231C192.222 5.05718 191.889 5.28616 191.612 5.58292C191.336 5.87967 191.12 6.23138 190.964 6.63622C190.808 7.04105 190.729 7.48619 190.729 7.97529C190.729 8.6091 190.867 9.16598 191.143 9.64775C191.42 10.1277 191.803 10.5069 192.292 10.7835C192.781 11.0601 193.345 11.1975 193.986 11.1975C194.292 11.1975 194.598 11.1553 194.908 11.0711C195.216 10.9868 195.501 10.8732 195.767 10.7285C196.031 10.5838 196.256 10.4208 196.439 10.2358L195.912 9.49021C195.575 9.77964 195.265 9.97564 194.985 10.0801C194.705 10.1845 194.408 10.2358 194.096 10.2358C193.622 10.2358 193.212 10.1405 192.864 9.94817C192.516 9.75582 192.244 9.48472 192.052 9.13667C191.895 8.8509 191.801 8.52483 191.774 8.15664H196.692L196.705 7.68769ZM192.015 6.6527C192.184 6.31748 192.426 6.06102 192.743 5.88333C193.06 5.70748 193.439 5.61955 193.878 5.61955C194.215 5.61955 194.514 5.69466 194.774 5.8412C195.034 5.98958 195.241 6.18742 195.393 6.43105C195.545 6.67652 195.635 6.93847 195.659 7.21874V7.303H191.812C191.852 7.05937 191.92 6.84322 192.015 6.6527Z" fill="#001F33"/>
<path d="M202.883 2.18066V5.68862C202.753 5.51276 202.588 5.35157 202.391 5.20502C202.158 5.031 201.896 4.89727 201.603 4.80201C201.31 4.70493 201.007 4.6573 200.696 4.6573C200.126 4.6573 199.617 4.79835 199.168 5.07862C198.72 5.35889 198.364 5.74541 198.104 6.23817C197.844 6.73093 197.714 7.2933 197.714 7.92712C197.714 8.56093 197.844 9.12147 198.104 9.61057C198.364 10.0997 198.721 10.4862 199.174 10.7701C199.628 11.0559 200.143 11.1969 200.72 11.1969C201.017 11.1969 201.304 11.1493 201.585 11.0541C201.865 10.957 202.114 10.8269 202.33 10.662C202.546 10.499 202.726 10.314 202.865 10.1088C202.872 10.0978 202.881 10.085 202.887 10.074L202.896 11.0779H203.929V2.18066H202.883ZM202.662 9.1288C202.48 9.48234 202.237 9.76078 201.927 9.96595C201.619 10.1693 201.26 10.2719 200.852 10.2719C200.443 10.2719 200.082 10.1693 199.769 9.96595C199.458 9.76078 199.212 9.48234 199.036 9.1288C198.861 8.77709 198.773 8.37592 198.773 7.92712C198.773 7.47832 198.862 7.06616 199.042 6.71261C199.223 6.3609 199.469 6.08246 199.782 5.8773C200.093 5.67213 200.451 5.57139 200.852 5.57139C201.253 5.57139 201.621 5.67213 201.934 5.8773C202.246 6.08246 202.491 6.3609 202.667 6.71261C202.843 7.06616 202.931 7.47099 202.931 7.92712C202.931 8.38324 202.841 8.77709 202.662 9.1288Z" fill="#001F33"/>
<path d="M206.357 3.41967C206.124 3.41967 205.945 3.35738 205.816 3.23282C205.688 3.10825 205.624 2.93423 205.624 2.70892C205.624 2.50009 205.69 2.32973 205.822 2.19784C205.954 2.06594 206.131 2 206.357 2C206.597 2 206.782 2.06228 206.91 2.18684C207.038 2.31141 207.102 2.48543 207.102 2.70892C207.102 2.91775 207.036 3.0881 206.904 3.21999C206.773 3.35189 206.589 3.41784 206.357 3.41784V3.41967ZM205.853 11.0786V4.79171H206.899V11.0786H205.853Z" fill="#001F33"/>
<path d="M214.599 6.23267C214.339 5.74357 213.987 5.35889 213.542 5.07862C213.097 4.79835 212.593 4.6573 212.033 4.6573C211.752 4.6573 211.481 4.69943 211.221 4.78369C210.961 4.86796 210.723 4.98519 210.507 5.13724C210.289 5.29111 210.107 5.46331 209.959 5.65565C209.922 5.70328 209.888 5.75273 209.857 5.80219V2.18066H208.811V11.0779H209.846L209.86 10.118C209.869 10.1326 209.882 10.1491 209.893 10.1638C210.045 10.3635 210.236 10.5393 210.465 10.6914C210.692 10.8452 210.943 10.9661 211.216 11.0596C211.487 11.1511 211.769 11.1969 212.057 11.1969C212.61 11.1969 213.108 11.0559 213.553 10.7701C213.998 10.4862 214.348 10.0978 214.606 9.60508C214.863 9.11231 214.991 8.54811 214.991 7.91429C214.991 7.28048 214.859 6.72177 214.599 6.23267ZM213.698 9.09949C213.518 9.44754 213.271 9.72414 212.958 9.92931C212.646 10.1326 212.289 10.2352 211.888 10.2352C211.487 10.2352 211.12 10.1363 210.813 9.9348C210.503 9.73513 210.258 9.46036 210.073 9.11231C209.889 8.76243 209.796 8.36492 209.796 7.91429C209.796 7.46366 209.888 7.07898 210.067 6.73093C210.247 6.38288 210.494 6.10994 210.807 5.91394C211.119 5.71793 211.48 5.61901 211.888 5.61901C212.297 5.61901 212.657 5.71793 212.971 5.91394C213.284 6.10994 213.528 6.38288 213.703 6.73093C213.879 7.07898 213.969 7.47465 213.969 7.91429C213.969 8.35393 213.879 8.75144 213.698 9.09949Z" fill="#001F33"/>
<path d="M216.413 11.0779V2.18066H217.459V11.0779H216.413Z" fill="#001F33"/>
<path d="M224.862 7.68769C224.879 7.24622 224.818 6.84138 224.683 6.47318C224.545 6.10499 224.351 5.78441 224.1 5.51147C223.847 5.23853 223.543 5.02604 223.192 4.874C222.838 4.72196 222.453 4.64502 222.037 4.64502C221.581 4.64502 221.158 4.72745 220.77 4.89231C220.38 5.05718 220.048 5.28616 219.771 5.58292C219.495 5.87967 219.279 6.23138 219.121 6.63622C218.965 7.04105 218.887 7.48619 218.887 7.97529C218.887 8.6091 219.026 9.16598 219.303 9.64775C219.579 10.1277 219.962 10.5069 220.451 10.7835C220.94 11.0601 221.504 11.1975 222.146 11.1975C222.45 11.1975 222.757 11.1553 223.065 11.0711C223.375 10.9868 223.66 10.8732 223.924 10.7285C224.19 10.5838 224.413 10.4208 224.598 10.2358L224.069 9.49021C223.732 9.77964 223.424 9.97564 223.144 10.0801C222.864 10.1845 222.567 10.2358 222.254 10.2358C221.781 10.2358 221.371 10.1405 221.021 9.94817C220.673 9.75582 220.402 9.48472 220.209 9.13667C220.052 8.8509 219.96 8.52483 219.933 8.15664H224.851L224.862 7.68769ZM220.175 6.6527C220.343 6.31748 220.585 6.06102 220.902 5.88333C221.219 5.70748 221.596 5.61955 222.037 5.61955C222.375 5.61955 222.673 5.69466 222.933 5.8412C223.193 5.98958 223.4 6.18742 223.552 6.43105C223.704 6.67652 223.792 6.93847 223.816 7.21874V7.303H219.971C220.011 7.05937 220.079 6.84322 220.175 6.6527Z" fill="#001F33"/>
<path d="M120.14 16.8208H118.973L115.74 25.2362H116.845L117.689 23.0124H121.353L122.196 25.2362H123.361L120.14 16.8208ZM118.092 21.9536L118.842 19.9825C118.896 19.814 118.961 19.6272 119.034 19.4238C119.105 19.2187 119.18 19.008 119.256 18.7918C119.332 18.5757 119.404 18.365 119.472 18.1599C119.492 18.0994 119.512 18.0408 119.53 17.9822C119.543 18.0206 119.556 18.0591 119.569 18.1012C119.637 18.3137 119.713 18.5372 119.798 18.7735C119.88 19.0098 119.957 19.2333 120.025 19.4403C120.093 19.6491 120.148 19.814 120.188 19.9349L120.952 21.9536H118.092Z" fill="#001F33"/>
<path d="M128.244 18.9235L127.967 20.0666C127.863 20.0263 127.755 19.9933 127.643 19.9695C127.529 19.9457 127.421 19.9347 127.319 19.9347C127.07 19.9347 126.841 19.9805 126.634 20.0721C126.425 20.1637 126.245 20.2919 126.097 20.4568C125.95 20.6216 125.833 20.8103 125.749 21.0228C125.665 21.2335 125.622 21.4606 125.622 21.7006V25.236H124.565V18.9473H125.611L125.619 20.1344C125.703 19.9475 125.815 19.7716 125.954 19.6086C126.157 19.3686 126.399 19.1763 126.676 19.0316C126.95 18.8887 127.245 18.8154 127.559 18.8154C127.694 18.8154 127.822 18.8264 127.943 18.8447C128.064 18.8667 128.163 18.8924 128.244 18.9235Z" fill="#001F33"/>
<path d="M132.984 18.9475V19.9458H131.445V25.2361H130.41V19.9458H129.04V18.9475H130.41V17.3135H131.445V18.9475H132.984Z" fill="#001F33"/>
<path d="M134.729 17.5764C134.496 17.5764 134.317 17.5141 134.188 17.3896C134.06 17.265 133.996 17.091 133.996 16.8657C133.996 16.6568 134.062 16.4865 134.194 16.3546C134.326 16.2227 134.504 16.1567 134.729 16.1567C134.969 16.1567 135.154 16.219 135.282 16.3436C135.41 16.4681 135.474 16.6422 135.474 16.8675C135.474 17.0763 135.408 17.2467 135.277 17.3786C135.145 17.5105 134.961 17.5764 134.729 17.5764ZM134.225 25.2353V18.9484H135.271V25.2353H134.225Z" fill="#001F33"/>
<path d="M142.96 16.3452C142.831 16.2224 142.646 16.1602 142.406 16.1602C142.181 16.1602 142.003 16.2261 141.872 16.358C141.74 16.4899 141.672 16.6602 141.672 16.8691C141.672 17.0926 141.736 17.2684 141.864 17.393C141.992 17.5157 142.174 17.578 142.406 17.578C142.639 17.578 142.82 17.512 142.952 17.3802C143.086 17.2483 143.152 17.0779 143.152 16.8691C143.152 16.6456 143.088 16.4697 142.96 16.3452ZM141.901 18.9482V25.2369H142.947V18.9482H141.901Z" fill="#001F33"/>
<path d="M138.811 18.0824V19.0203H140.375V19.982H138.811V25.2357H137.765V19.982H136.695V19.0203H137.765V18.0824C137.765 17.7453 137.84 17.4486 137.989 17.1921C138.137 16.9357 138.344 16.7342 138.608 16.5858C138.872 16.4374 139.177 16.3623 139.522 16.3623C139.778 16.3623 140.013 16.4118 140.225 16.507C140.436 16.6041 140.612 16.7323 140.747 16.8917L140.386 17.6977C140.275 17.5768 140.148 17.487 140.009 17.4266C139.868 17.3661 139.738 17.3368 139.617 17.3368C139.441 17.3368 139.293 17.3643 139.172 17.4211C139.053 17.4779 138.963 17.5603 138.903 17.6739C138.842 17.7856 138.811 17.9212 138.811 18.0824Z" fill="#001F33"/>
<path d="M147.564 25.3551C146.97 25.3551 146.445 25.2122 145.983 24.9282C145.521 24.6443 145.157 24.2523 144.889 23.7559C144.622 23.2595 144.486 22.7026 144.486 22.0852C144.486 21.4679 144.62 20.9019 144.889 20.4091C145.159 19.9164 145.523 19.528 145.983 19.2422C146.445 18.9583 146.974 18.8154 147.577 18.8154C148.121 18.8154 148.619 18.9235 149.068 19.1397C149.517 19.3558 149.865 19.6562 150.114 20.0409L149.524 20.7737C149.379 20.574 149.203 20.4 148.994 20.2498C148.786 20.1014 148.566 19.9823 148.333 19.8944C148.101 19.8065 147.868 19.7625 147.635 19.7625C147.227 19.7625 146.862 19.8632 146.542 20.0629C146.221 20.2626 145.966 20.5392 145.778 20.8927C145.589 21.2463 145.496 21.6419 145.496 22.0834C145.496 22.5249 145.593 22.9187 145.785 23.2668C145.977 23.6148 146.236 23.8896 146.56 24.0911C146.884 24.2908 147.243 24.3915 147.635 24.3915C147.868 24.3915 148.093 24.3549 148.315 24.2834C148.535 24.212 148.745 24.1003 148.947 23.9537C149.147 23.8053 149.335 23.6277 149.511 23.4188L150.101 24.1406C149.837 24.5014 149.471 24.7945 149.007 25.018C148.542 25.2415 148.062 25.3551 147.564 25.3551Z" fill="#001F33"/>
<path d="M151.945 17.5764C151.712 17.5764 151.532 17.5141 151.404 17.3896C151.276 17.265 151.212 17.091 151.212 16.8657C151.212 16.6568 151.278 16.4865 151.41 16.3546C151.542 16.2227 151.719 16.1567 151.945 16.1567C152.185 16.1567 152.37 16.219 152.498 16.3436C152.626 16.4681 152.69 16.6422 152.69 16.8675C152.69 17.0763 152.624 17.2467 152.492 17.3786C152.36 17.5105 152.177 17.5764 151.945 17.5764ZM151.439 25.2353V18.9484H152.485V25.2353H151.439Z" fill="#001F33"/>
<path d="M159.134 18.9473L159.118 19.9915C159.112 19.9805 159.105 19.9695 159.098 19.9585C158.953 19.7332 158.775 19.5353 158.563 19.3632C158.35 19.191 158.105 19.0572 157.828 18.9601C157.551 18.8631 157.249 18.8154 156.921 18.8154C156.368 18.8154 155.87 18.9565 155.425 19.2368C154.98 19.517 154.624 19.9017 154.36 20.3908C154.097 20.8799 153.963 21.4404 153.963 22.0743C153.963 22.7081 154.091 23.2595 154.348 23.7577C154.604 24.2541 154.952 24.6443 155.388 24.9282C155.826 25.214 156.311 25.3551 156.85 25.3551C157.154 25.3551 157.445 25.3074 157.727 25.2122C158.008 25.1151 158.264 24.985 158.497 24.8202C158.729 24.6571 158.922 24.4685 159.074 24.256C159.09 24.2322 159.107 24.2102 159.121 24.1864V25.236H160.178V18.9473H159.134ZM158.905 23.2704C158.729 23.6185 158.484 23.8914 158.171 24.0874C157.859 24.2834 157.502 24.3824 157.101 24.3824C156.7 24.3824 156.333 24.2816 156.026 24.0819C155.716 23.8804 155.474 23.6057 155.298 23.2576C155.122 22.9096 155.035 22.5139 155.035 22.0743C155.035 21.6346 155.122 21.2408 155.298 20.8964C155.474 20.552 155.72 20.2809 156.031 20.0849C156.344 19.8871 156.7 19.79 157.101 19.79C157.502 19.79 157.859 19.8871 158.171 20.0849C158.484 20.2809 158.729 20.552 158.905 20.8964C159.081 21.2408 159.169 21.6328 159.169 22.0743C159.169 22.5157 159.081 22.9206 158.905 23.2704Z" fill="#001F33"/>
<path d="M161.985 25.2366V16.3394H163.031V25.2366H161.985Z" fill="#001F33"/>
<path d="M168.742 25.2362V24.2269H170.101V17.8301H168.742V16.8208H172.541V17.8301H171.182V24.2269H172.541V25.2362H168.742Z" fill="#001F33"/>
<path d="M179.343 21.413V25.236H178.308V21.4734C178.308 21.0796 178.257 20.7553 178.153 20.4989C178.048 20.2424 177.889 20.0538 177.671 19.9347C177.455 19.8138 177.191 19.757 176.878 19.7662C176.614 19.7662 176.374 19.8101 176.156 19.898C175.94 19.986 175.749 20.105 175.586 20.2516C175.421 20.4 175.295 20.5758 175.207 20.7755C175.119 20.9752 175.075 21.1877 175.075 21.413V25.236H174.029V18.9473H175.062L175.081 19.9731C175.161 19.8376 175.264 19.7075 175.387 19.5848C175.619 19.3522 175.896 19.1671 176.217 19.0261C176.537 18.8869 176.87 18.8154 177.215 18.8154C177.687 18.8154 178.083 18.907 178.4 19.092C178.715 19.2771 178.951 19.561 179.109 19.9457C179.265 20.3304 179.343 20.8195 179.343 21.413Z" fill="#001F33"/>
<path d="M184.401 18.9475V19.9458H182.862V25.2361H181.829V19.9458H180.459V18.9475H181.829V17.3135H182.862V18.9475H184.401Z" fill="#001F33"/>
<path d="M191.046 21.846C191.062 21.4064 191.002 20.9997 190.866 20.6315C190.729 20.2633 190.535 19.9427 190.282 19.6698C190.031 19.3969 189.727 19.1844 189.375 19.0323C189.022 18.8803 188.637 18.8052 188.221 18.8052C187.763 18.8052 187.342 18.8876 186.952 19.0506C186.563 19.2155 186.232 19.4463 185.955 19.7431C185.678 20.038 185.462 20.3897 185.305 20.7945C185.149 21.1994 185.07 21.6463 185.07 22.1354C185.07 22.7674 185.21 23.3243 185.486 23.8061C185.763 24.286 186.146 24.6652 186.633 24.9418C187.122 25.2184 187.688 25.3558 188.329 25.3558C188.633 25.3558 188.939 25.3155 189.249 25.2294C189.556 25.147 189.844 25.0316 190.108 24.8887C190.373 24.744 190.597 24.5791 190.782 24.3941L190.253 23.6504C189.916 23.938 189.608 24.134 189.327 24.2384C189.045 24.3428 188.75 24.3941 188.437 24.3941C187.965 24.3941 187.554 24.2988 187.204 24.1065C186.856 23.9142 186.585 23.643 186.393 23.295C186.235 23.0111 186.144 22.6832 186.116 22.315H191.035L191.046 21.846ZM186.358 20.8129C186.525 20.4758 186.768 20.2194 187.085 20.0435C187.4 19.8658 187.78 19.7779 188.221 19.7779C188.558 19.7779 188.857 19.853 189.117 20.0014C189.377 20.1497 189.584 20.3457 189.736 20.5894C189.888 20.8348 189.976 21.0968 190 21.3771V21.4613H186.153C186.195 21.2195 186.263 21.0034 186.358 20.8129Z" fill="#001F33"/>
<path d="M192.469 25.2366V16.3394H193.515V25.2366H192.469Z" fill="#001F33"/>
<path d="M195.323 25.2366V16.3394H196.369V25.2366H195.323Z" fill="#001F33"/>
<path d="M198.801 17.5764C198.568 17.5764 198.389 17.5141 198.261 17.3896C198.132 17.265 198.068 17.091 198.068 16.8657C198.068 16.6568 198.134 16.4865 198.266 16.3546C198.398 16.2227 198.576 16.1567 198.801 16.1567C199.041 16.1567 199.226 16.219 199.354 16.3436C199.483 16.4681 199.547 16.6422 199.547 16.8675C199.547 17.0763 199.481 17.2467 199.349 17.3786C199.217 17.5105 199.034 17.5764 198.801 17.5764ZM198.297 25.2353V18.9484H199.343V25.2353H198.297Z" fill="#001F33"/>
<path d="M206.123 18.9473L206.107 19.9182C206.01 19.7826 205.893 19.6544 205.755 19.5317C205.599 19.3906 205.424 19.2661 205.228 19.158C205.03 19.0499 204.817 18.9656 204.59 18.9052C204.361 18.8447 204.127 18.8154 203.887 18.8154C203.31 18.8154 202.789 18.9565 202.33 19.2368C201.868 19.517 201.503 19.9035 201.236 20.3963C200.967 20.8891 200.833 21.4533 200.833 22.0852C200.833 22.7172 200.967 23.2796 201.236 23.7687C201.503 24.2578 201.868 24.6443 202.33 24.9282C202.789 25.214 203.317 25.3551 203.91 25.3551C204.279 25.3551 204.634 25.28 204.975 25.1279C205.316 24.9759 205.599 24.7744 205.828 24.5271C205.951 24.3934 206.048 24.256 206.123 24.1131V24.9228C206.123 25.3954 206.041 25.7892 205.876 26.1006C205.711 26.4139 205.473 26.6502 205.162 26.8114C204.848 26.9707 204.464 27.0513 204.006 27.0513C203.758 27.0513 203.511 27.022 203.268 26.9671C203.022 26.9103 202.795 26.8352 202.582 26.7381C202.37 26.6428 202.183 26.5293 202.024 26.401L201.626 27.2437C201.899 27.4598 202.247 27.6394 202.672 27.7841C203.097 27.9288 203.537 28.0002 203.995 28.0002C204.484 28.0002 204.922 27.9306 205.312 27.7896C205.7 27.6504 206.032 27.4452 206.308 27.1777C206.585 26.9085 206.797 26.5806 206.946 26.1922C207.094 25.802 207.167 25.3551 207.167 24.8513V18.9473H206.123ZM205.889 23.2759C205.708 23.6203 205.455 23.8914 205.13 24.0874C204.806 24.2834 204.44 24.3824 204.031 24.3824C203.623 24.3824 203.246 24.2816 202.925 24.0819C202.604 23.8804 202.352 23.6057 202.167 23.2576C201.983 22.9096 201.89 22.5194 201.89 22.0852C201.89 21.6511 201.983 21.2499 202.167 20.9019C202.352 20.5538 202.604 20.2791 202.925 20.0776C203.246 19.8779 203.614 19.7771 204.031 19.7771C204.449 19.7771 204.804 19.8761 205.125 20.0721C205.446 20.2681 205.698 20.541 205.882 20.8891C206.067 21.2389 206.158 21.6365 206.158 22.0852C206.158 22.534 206.068 22.9316 205.889 23.2759Z" fill="#001F33"/>
<path d="M214.544 21.846C214.56 21.4064 214.5 20.9997 214.364 20.6315C214.229 20.2633 214.035 19.9427 213.782 19.6698C213.529 19.3969 213.227 19.1844 212.873 19.0323C212.522 18.8803 212.137 18.8052 211.719 18.8052C211.263 18.8052 210.84 18.8876 210.452 19.0506C210.061 19.2155 209.73 19.4463 209.453 19.7431C209.177 20.038 208.96 20.3897 208.805 20.7945C208.647 21.1994 208.57 21.6463 208.57 22.1354C208.57 22.7674 208.708 23.3243 208.984 23.8061C209.261 24.286 209.644 24.6652 210.133 24.9418C210.622 25.2184 211.186 25.3558 211.827 25.3558C212.131 25.3558 212.439 25.3155 212.747 25.2294C213.056 25.147 213.342 25.0316 213.608 24.8887C213.872 24.744 214.095 24.5791 214.28 24.3941L213.751 23.6504C213.414 23.938 213.106 24.134 212.826 24.2384C212.545 24.3428 212.249 24.3941 211.935 24.3941C211.463 24.3941 211.052 24.2988 210.704 24.1065C210.355 23.9142 210.085 23.643 209.893 23.295C209.735 23.0111 209.642 22.6832 209.614 22.315H214.533L214.544 21.846ZM209.856 20.8129C210.025 20.4758 210.267 20.2194 210.584 20.0435C210.9 19.8658 211.278 19.7779 211.719 19.7779C212.056 19.7779 212.355 19.853 212.615 20.0014C212.875 20.1497 213.082 20.3457 213.234 20.5894C213.386 20.8348 213.474 21.0968 213.498 21.3771V21.4613H209.651C209.693 21.2195 209.761 21.0034 209.856 20.8129Z" fill="#001F33"/>
<path d="M221.276 21.413V25.236H220.243V21.4734C220.243 21.0796 220.19 20.7553 220.085 20.4989C219.981 20.2424 219.822 20.0538 219.605 19.9347C219.389 19.8138 219.124 19.757 218.812 19.7662C218.547 19.7662 218.307 19.8101 218.091 19.898C217.874 19.986 217.684 20.105 217.519 20.2516C217.354 20.4 217.228 20.5758 217.14 20.7755C217.052 20.9752 217.008 21.1877 217.008 21.413V25.236H215.962V18.9473H216.997L217.015 19.9731C217.096 19.8376 217.198 19.7075 217.321 19.5848C217.554 19.3522 217.83 19.1671 218.151 19.0261C218.472 18.8869 218.803 18.8154 219.147 18.8154C219.62 18.8154 220.016 18.907 220.333 19.092C220.65 19.2771 220.886 19.561 221.042 19.9457C221.197 20.3304 221.276 20.8195 221.276 21.413Z" fill="#001F33"/>
<path d="M225.735 25.3551C225.141 25.3551 224.615 25.2122 224.154 24.9282C223.692 24.6443 223.328 24.2523 223.06 23.7559C222.793 23.2595 222.657 22.7026 222.657 22.0852C222.657 21.4679 222.791 20.9019 223.06 20.4091C223.33 19.9164 223.694 19.528 224.154 19.2422C224.615 18.9583 225.145 18.8154 225.748 18.8154C226.292 18.8154 226.79 18.9235 227.239 19.1397C227.687 19.3558 228.035 19.6562 228.285 20.0409L227.695 20.7737C227.55 20.574 227.374 20.4 227.165 20.2498C226.957 20.1014 226.737 19.9823 226.504 19.8944C226.271 19.8065 226.039 19.7625 225.806 19.7625C225.398 19.7625 225.033 19.8632 224.713 20.0629C224.392 20.2626 224.137 20.5392 223.949 20.8927C223.76 21.2463 223.667 21.6419 223.667 22.0834C223.667 22.5249 223.764 22.9187 223.956 23.2668C224.148 23.6148 224.407 23.8896 224.731 24.0911C225.055 24.2908 225.414 24.3915 225.806 24.3915C226.039 24.3915 226.264 24.3549 226.486 24.2834C226.706 24.212 226.916 24.1003 227.118 23.9537C227.317 23.8053 227.506 23.6277 227.682 23.4188L228.272 24.1406C228.008 24.5014 227.642 24.7945 227.178 25.018C226.713 25.2415 226.233 25.3551 225.735 25.3551Z" fill="#001F33"/>
<path d="M234.997 21.846C235.014 21.4064 234.953 20.9997 234.818 20.6315C234.68 20.2633 234.486 19.9427 234.235 19.6698C233.982 19.3969 233.68 19.1844 233.326 19.0323C232.975 18.8803 232.59 18.8052 232.172 18.8052C231.716 18.8052 231.293 18.8876 230.905 19.0506C230.515 19.2155 230.183 19.4463 229.906 19.7431C229.63 20.038 229.414 20.3897 229.258 20.7945C229.1 21.1994 229.023 21.6463 229.023 22.1354C229.023 22.7674 229.161 23.3243 229.437 23.8061C229.714 24.286 230.097 24.6652 230.586 24.9418C231.075 25.2184 231.639 25.3558 232.28 25.3558C232.585 25.3558 232.892 25.3155 233.2 25.2294C233.51 25.147 233.795 25.0316 234.059 24.8887C234.325 24.744 234.548 24.5791 234.733 24.3941L234.204 23.6504C233.867 23.938 233.559 24.134 233.279 24.2384C232.999 24.3428 232.702 24.3941 232.389 24.3941C231.916 24.3941 231.506 24.2988 231.158 24.1065C230.808 23.9142 230.538 23.643 230.344 23.295C230.187 23.0111 230.095 22.6832 230.068 22.315H234.986L234.997 21.846ZM230.309 20.8129C230.478 20.4758 230.72 20.2194 231.037 20.0435C231.354 19.8658 231.731 19.7779 232.172 19.7779C232.509 19.7779 232.808 19.853 233.068 20.0014C233.328 20.1497 233.535 20.3457 233.687 20.5894C233.839 20.8348 233.927 21.0968 233.951 21.3771V21.4613H230.106C230.146 21.2195 230.214 21.0034 230.309 20.8129Z" fill="#001F33"/>
</svg>
