<svg preserveAspectRatio="none" width="100%" height="100%" overflow="visible" style="display: block;" viewBox="0 0 374 81" fill="none" xmlns="http://www.w3.org/2000/svg">
<g id="Group">
<path id="Vector" d="M0 23.0153H23.0154V57.5383H0V23.0153ZM23.0154 80.5536V57.5383H80.5538V80.5536H23.0154ZM23.0154 23.0153V-9.30386e-05H80.5538V23.0153H23.0154Z" fill="var(--fill-0, #001F33)"/>
<path id="Vector_2" d="M97.8144 17.2616H115.076V63.2923H97.8144V17.2616ZM115.076 80.5538V63.2923H178.368V80.5538H115.076ZM115.076 17.2616V9.55646e-05H178.368V17.2616H115.076Z" fill="var(--fill-0, #001F33)"/>
<path id="Vector_3" d="M293.446 5.75393V9.55646e-05H330.846V5.75393H293.446ZM336.6 5.75393V9.55646e-05H374V5.75393H336.6ZM293.446 80.5538V74.8H330.846V80.5538H293.446ZM336.6 80.5538V74.8H374V80.5538H336.6ZM330.846 5.75393H336.6V74.8H330.846V5.75393Z" fill="var(--fill-0, #001F33)"/>
<path id="Vector_4" d="M264.675 9.55646e-05V11.5078H207.136V9.55646e-05H264.675ZM264.675 11.5078V40.277H207.136V11.5078H195.629V80.5538H207.136V51.7846H264.675V80.5538H276.182V11.5078H264.675Z" fill="var(--fill-0, #001F33)"/>
</g>
</svg>
