<svg width="149" height="32" viewBox="0 0 149 32" fill="none" xmlns="http://www.w3.org/2000/svg">
<g id="Logo">
<path id="Vector" d="M0 9.14286H9.14283V22.8571H0V9.14286ZM9.14283 32V22.8571H31.9999V32H9.14283ZM9.14283 9.14286V0H31.9999V9.14286H9.14283Z" fill="#001F33"/>
<path id="Vector_2" d="M38.8577 6.85714H45.7148V25.1429H38.8577V6.85714ZM45.7148 32V25.1429H70.8576V32H45.7148ZM45.7148 6.85714V0H70.8576V6.85714H45.7148Z" fill="#001F33"/>
<path id="Vector_3" d="M116.572 2.28571V0H131.429V2.28571H116.572ZM133.714 2.28571V0H148.571V2.28571H133.714ZM116.572 32V29.7143H131.429V32H116.572ZM133.714 32V29.7143H148.571V32H133.714ZM131.429 2.28571H133.714V29.7143H131.429V2.28571Z" fill="#001F33"/>
<path id="Vector_4" d="M105.142 0V4.57143H82.2852V0H105.142ZM105.142 4.57143V16H82.2852V4.57143H77.7138V32H82.2852V20.5714H105.142V32H109.714V4.57143H105.142Z" fill="#001F33"/>
</g>
</svg>
