<svg preserveAspectRatio="none" width="100%" height="100%" overflow="visible" style="display: block;" viewBox="0 0 109 10" fill="none" xmlns="http://www.w3.org/2000/svg">
<g id="Group">
<path id="Vector" d="M4.08846 9.19781C3.48762 9.19781 2.93807 9.09339 2.44165 8.88457C1.94522 8.67574 1.51291 8.37715 1.14837 7.9888C0.783837 7.60045 0.501737 7.14066 0.300235 6.61126C0.100566 6.08186 -0.000184713 5.50117 -0.000184713 4.86736C-0.000184713 4.23354 0.104228 3.69498 0.313057 3.17841C0.521886 2.66183 0.811317 2.20937 1.18501 1.81919C1.55687 1.43084 1.99468 1.12676 2.49477 0.910607C2.99486 0.694451 3.53891 0.586369 4.12327 0.586369C4.51528 0.586369 4.90729 0.648655 5.29564 0.773219C5.68398 0.897784 6.03936 1.06997 6.35993 1.28979C6.6805 1.50961 6.94428 1.76057 7.15311 2.04084L6.40756 2.81021C6.19873 2.57024 5.96792 2.36508 5.71696 2.19655C5.46417 2.02802 5.20405 1.89796 4.93477 1.80637C4.66549 1.71478 4.39621 1.66898 4.12327 1.66898C3.69095 1.66898 3.28978 1.74958 2.92159 1.90895C2.55339 2.07015 2.23465 2.29181 1.96537 2.57574C1.69609 2.85967 1.48543 3.19673 1.33339 3.58508C1.18135 3.97342 1.10441 4.40024 1.10441 4.86553C1.10441 5.33081 1.18135 5.78694 1.33339 6.18811C1.48543 6.58928 1.69975 6.93183 1.97636 7.21577C2.25297 7.4997 2.58086 7.71952 2.96189 7.87156C3.34291 8.02361 3.76606 8.10054 4.22951 8.10054C4.50978 8.10054 4.78822 8.06207 5.06483 7.98696C5.34143 7.91186 5.59606 7.80012 5.8287 7.65724C6.06134 7.51252 6.26468 7.34399 6.44236 7.15165L6.99558 8.04192C6.80324 8.25808 6.55227 8.45408 6.24453 8.62994C5.93678 8.80579 5.59239 8.94501 5.21687 9.04576C4.83951 9.14651 4.46399 9.19597 4.08663 9.19597L4.08846 9.19781Z" fill="var(--fill-0, #001F33)"/>
<path id="Vector_2" d="M13.7935 5.68799C13.81 5.24652 13.7495 4.84169 13.614 4.47349C13.4766 4.10529 13.2824 3.78472 13.0314 3.51178C12.7786 3.23883 12.4764 3.02635 12.1228 2.8743C11.7693 2.72226 11.3865 2.64532 10.9688 2.64532C10.5127 2.64532 10.0895 2.72775 9.70117 2.89262C9.31099 3.05748 8.97943 3.28646 8.70282 3.58322C8.42621 3.87998 8.21006 4.23169 8.05252 4.63652C7.89681 5.04136 7.81988 5.48649 7.81988 5.97559C7.81988 6.60941 7.95726 7.16628 8.23387 7.64805C8.51048 8.12799 8.89333 8.50718 9.38243 8.78379C9.87153 9.06039 10.4357 9.19778 11.0769 9.19778C11.381 9.19778 11.6887 9.15565 11.9965 9.07139C12.306 8.98712 12.5918 8.87355 12.8556 8.72883C13.1212 8.58412 13.3447 8.42109 13.5297 8.23607L13.0003 7.49051C12.6632 7.77994 12.3555 7.97595 12.0752 8.08036C11.795 8.18478 11.4982 8.23607 11.185 8.23607C10.7123 8.23607 10.302 8.14081 9.95213 7.94847C9.60408 7.75613 9.33297 7.48502 9.14063 7.13697C8.98309 6.85121 8.8915 6.52514 8.86402 6.15694H13.7825L13.7935 5.68799ZM9.10582 4.65301C9.27435 4.31778 9.51615 4.06133 9.83306 3.88364C10.15 3.70778 10.5273 3.61985 10.9688 3.61985C11.3059 3.61985 11.6044 3.69496 11.8646 3.84151C12.1247 3.98989 12.3317 4.18773 12.4837 4.43136C12.6358 4.67682 12.7237 4.93877 12.7475 5.21904V5.30331H8.90066C8.94279 5.05967 9.01057 4.84352 9.10582 4.65301Z" fill="var(--fill-0, #001F33)"/>
<path id="Vector_3" d="M20.5272 5.25556V9.07859H19.4922V5.31417C19.4922 4.92216 19.4409 4.59793 19.3365 4.34147C19.2321 4.08502 19.0727 3.89634 18.8566 3.77544C18.6386 3.65637 18.3748 3.59958 18.0616 3.60874C17.7978 3.60874 17.5578 3.6527 17.3417 3.74063C17.1237 3.82856 16.935 3.9458 16.7701 4.09417C16.6053 4.24255 16.4789 4.41658 16.3909 4.61808C16.303 4.81775 16.2591 5.03024 16.2591 5.25556V9.07859H15.2131V2.78991H16.2462L16.2664 3.81574C16.347 3.68018 16.4496 3.55012 16.5723 3.42739C16.8031 3.19475 17.0797 3.0079 17.4003 2.86868C17.7209 2.72763 18.0542 2.65802 18.3986 2.65802C18.8712 2.65802 19.2669 2.74961 19.5838 2.93463C19.8989 3.11964 20.1352 3.40358 20.2927 3.78826C20.4484 4.17295 20.5272 4.66205 20.5272 5.25556Z" fill="var(--fill-0, #001F33)"/>
<path id="Vector_4" d="M25.5854 2.78925V3.7876H24.0467V9.07793H23.0117V3.7876H21.6415V2.78925H23.0117V1.15526H24.0467V2.78925H25.5854Z" fill="var(--fill-0, #001F33)"/>
<path id="Vector_5" d="M30.3835 2.7661L30.1068 3.90916C30.0024 3.86886 29.8944 3.83589 29.7826 3.81208C29.6709 3.78826 29.5628 3.77544 29.4584 3.77544C29.2093 3.77544 28.9803 3.82123 28.7733 3.91466C28.5644 4.00625 28.3868 4.13448 28.2384 4.29934C28.09 4.46238 27.9728 4.65105 27.8885 4.86355C27.8042 5.07604 27.7621 5.30318 27.7621 5.54315V9.07859H26.7051V2.78991H27.7511L27.7584 3.97877C27.8427 3.79009 27.9544 3.61424 28.0937 3.45121C28.297 3.21124 28.5388 3.01889 28.8154 2.87418C29.092 2.72946 29.3851 2.65802 29.6984 2.65802C29.8339 2.65802 29.9621 2.66718 30.083 2.68733C30.2039 2.70748 30.3029 2.73496 30.3835 2.7661Z" fill="var(--fill-0, #001F33)"/>
<path id="Vector_6" d="M36.8191 5.68799C36.8338 5.24652 36.7733 4.84169 36.6378 4.47349C36.5022 4.10529 36.308 3.78472 36.0552 3.51178C35.8024 3.23883 35.5002 3.02635 35.1466 2.8743C34.7949 2.72226 34.4103 2.64532 33.9926 2.64532C33.5365 2.64532 33.1133 2.72775 32.725 2.89262C32.3366 3.05748 32.0032 3.28646 31.7266 3.58322C31.45 3.87998 31.2339 4.23169 31.0782 4.63652C30.9206 5.04136 30.8437 5.48649 30.8437 5.97559C30.8437 6.60941 30.9811 7.16628 31.2577 7.64805C31.5343 8.12799 31.9171 8.50718 32.4062 8.78379C32.8953 9.06039 33.4595 9.19778 34.1007 9.19778C34.4066 9.19778 34.7125 9.15565 35.0203 9.07139C35.3298 8.98712 35.6156 8.87355 35.8812 8.72883C36.145 8.58412 36.3685 8.42109 36.5535 8.23607L36.0241 7.49051C35.6889 7.77994 35.3793 7.97595 35.099 8.08036C34.8187 8.18478 34.522 8.23607 34.2088 8.23607C33.7361 8.23607 33.3258 8.14081 32.9778 7.94847C32.6279 7.75613 32.3586 7.48502 32.1663 7.13697C32.0087 6.85121 31.9153 6.52514 31.8878 6.15694H36.8063L36.8191 5.68799ZM32.1296 4.65301C32.2982 4.31778 32.54 4.06133 32.8569 3.88364C33.1738 3.70778 33.553 3.61985 33.9926 3.61985C34.3297 3.61985 34.6282 3.69496 34.8884 3.84151C35.1485 3.98989 35.3555 4.18773 35.5075 4.43136C35.6596 4.67682 35.7475 4.93877 35.7731 5.21904V5.30331H31.9263C31.9666 5.05967 32.0344 4.84352 32.1296 4.65301Z" fill="var(--fill-0, #001F33)"/>
<path id="Vector_7" d="M43.8533 1.92561V2.86168H45.4158V3.82339H43.8533V9.07891H42.8073V3.82339H41.7375V2.86168H42.8073V1.92561C42.8073 1.58855 42.8806 1.2918 43.0289 1.03534C43.1773 0.778885 43.3843 0.575552 43.6481 0.429005C43.9137 0.280627 44.2178 0.205522 44.5622 0.205522C44.8186 0.205522 45.0531 0.253145 45.2656 0.350232C45.4781 0.445488 45.6521 0.573717 45.7895 0.734918L45.4286 1.54092C45.3151 1.42002 45.1887 1.33027 45.0494 1.26981C44.9084 1.20936 44.7783 1.18006 44.6593 1.18006C44.4816 1.18006 44.3332 1.20753 44.2141 1.26432C44.0932 1.31927 44.0035 1.40354 43.943 1.51711C43.8826 1.62885 43.8533 1.76441 43.8533 1.92561Z" fill="var(--fill-0, #001F33)"/>
<path id="Vector_8" d="M49.4124 9.19711C48.7878 9.19711 48.2327 9.05422 47.7473 8.77029C47.2619 8.48635 46.8808 8.09617 46.6042 7.60341C46.3276 7.11065 46.1902 6.54828 46.1902 5.91446C46.1902 5.28065 46.3276 4.72011 46.6042 4.23101C46.8808 3.74191 47.2619 3.35723 47.7473 3.07696C48.2327 2.79669 48.7878 2.65564 49.4124 2.65564C50.0371 2.65564 50.5683 2.79669 51.0537 3.07696C51.5392 3.35723 51.922 3.74191 52.2023 4.23101C52.4826 4.72011 52.6236 5.28065 52.6236 5.91446C52.6236 6.54828 52.4826 7.11065 52.2023 7.60341C51.922 8.09617 51.5392 8.48452 51.0537 8.77029C50.5683 9.05605 50.0224 9.19711 49.4124 9.19711ZM49.4124 8.23539C49.8209 8.23539 50.1873 8.13281 50.5115 7.92948C50.8358 7.72431 51.0904 7.44954 51.2754 7.09966C51.4604 6.75161 51.552 6.35593 51.552 5.9163C51.552 5.47666 51.4604 5.08098 51.2754 4.73293C51.0904 4.38489 50.8358 4.11194 50.5115 3.91593C50.1873 3.71993 49.8209 3.62101 49.4124 3.62101C49.0039 3.62101 48.6229 3.72176 48.295 3.92143C47.9671 4.1211 47.7107 4.39405 47.5256 4.73843C47.3406 5.08281 47.249 5.47666 47.249 5.9163C47.249 6.35593 47.3406 6.75161 47.5256 7.09966C47.7107 7.4477 47.9671 7.72431 48.295 7.92948C48.6229 8.13464 48.9966 8.23539 49.4124 8.23539Z" fill="var(--fill-0, #001F33)"/>
<path id="Vector_9" d="M57.6965 2.7661L57.4199 3.90916C57.3155 3.86886 57.2074 3.83589 57.0957 3.81208C56.984 3.78826 56.8741 3.77544 56.7715 3.77544C56.5223 3.77544 56.2934 3.82123 56.0864 3.91466C55.8775 4.00625 55.698 4.13448 55.5515 4.29934C55.4031 4.46238 55.2859 4.65105 55.2016 4.86355C55.1173 5.07604 55.0752 5.30318 55.0752 5.54315V9.07859H54.0182V2.78991H55.0642L55.0715 3.97694C55.1558 3.78826 55.2675 3.61241 55.4068 3.45121C55.6101 3.21124 55.8519 3.01889 56.1285 2.87418C56.4051 2.72946 56.6982 2.65802 57.0114 2.65802C57.147 2.65802 57.2752 2.66718 57.3961 2.68733C57.517 2.70748 57.6159 2.73496 57.6965 2.7661Z" fill="var(--fill-0, #001F33)"/>
<path id="Vector_10" d="M66.4236 9.19781C65.8228 9.19781 65.2732 9.09339 64.7768 8.88457C64.2804 8.67574 63.8481 8.37715 63.4835 7.9888C63.119 7.60045 62.8369 7.14066 62.6354 6.61126C62.4357 6.08186 62.335 5.50117 62.335 4.86736C62.335 4.23354 62.4394 3.69498 62.6482 3.17841C62.8571 2.66183 63.1465 2.20937 63.5202 1.81919C63.892 1.43084 64.3298 1.12676 64.8299 0.910607C65.33 0.694451 65.8741 0.586369 66.4584 0.586369C66.8504 0.586369 67.2425 0.648655 67.6308 0.773219C68.0192 0.897784 68.3745 1.06997 68.6951 1.28979C69.0157 1.50961 69.2794 1.76057 69.4883 2.04084L68.7427 2.81021C68.5339 2.57024 68.3031 2.36508 68.0521 2.19655C67.7993 2.02802 67.5392 1.89796 67.2699 1.80637C67.0007 1.71478 66.7314 1.66898 66.4584 1.66898C66.0261 1.66898 65.6249 1.74958 65.2568 1.90895C64.8886 2.07015 64.5698 2.29181 64.3005 2.57574C64.0313 2.85967 63.8206 3.19673 63.6686 3.58508C63.5165 3.97342 63.4396 4.40024 63.4396 4.86553C63.4396 5.33081 63.5165 5.78694 63.6686 6.18811C63.8206 6.58928 64.0349 6.93183 64.3115 7.21577C64.5881 7.4997 64.916 7.71952 65.2971 7.87156C65.6781 8.02361 66.1012 8.10054 66.5647 8.10054C66.845 8.10054 67.1234 8.06207 67.4 7.98696C67.6766 7.91186 67.9312 7.80012 68.1639 7.65724C68.3965 7.51252 68.5998 7.34399 68.7775 7.15165L69.3307 8.04192C69.1384 8.25808 68.8874 8.45408 68.5797 8.62994C68.2719 8.80579 67.9276 8.94501 67.552 9.04576C67.1747 9.14651 66.7992 9.19597 66.4218 9.19597L66.4236 9.19781Z" fill="var(--fill-0, #001F33)"/>
<path id="Vector_11" d="M74.3158 2.7661L74.0392 3.90916C73.9347 3.86886 73.8267 3.83589 73.7149 3.81208C73.6032 3.78826 73.4951 3.77544 73.3907 3.77544C73.1416 3.77544 72.9144 3.82123 72.7056 3.91466C72.4968 4.00625 72.3191 4.13448 72.1707 4.29934C72.0223 4.46238 71.9051 4.65105 71.8208 4.86355C71.7366 5.07604 71.6944 5.30318 71.6944 5.54315V9.07859H70.6375V2.78991H71.6834L71.6908 3.97877C71.775 3.79009 71.8868 3.61424 72.026 3.45121C72.2293 3.21124 72.4711 3.01889 72.7477 2.87418C73.0243 2.72946 73.3193 2.65802 73.6307 2.65802C73.7662 2.65802 73.8944 2.66718 74.0153 2.68733C74.1362 2.70748 74.2352 2.73496 74.3158 2.7661Z" fill="var(--fill-0, #001F33)"/>
<path id="Vector_12" d="M80.7514 5.68799C80.7661 5.24652 80.7075 4.84169 80.5701 4.47349C80.4345 4.10529 80.2403 3.78472 79.9876 3.51178C79.7348 3.23883 79.4325 3.02635 79.079 2.8743C78.7273 2.72226 78.3426 2.64532 77.9249 2.64532C77.4688 2.64532 77.0456 2.72775 76.6573 2.89262C76.2689 3.05748 75.9355 3.28646 75.6589 3.58322C75.3823 3.87998 75.1662 4.23169 75.0105 4.63652C74.8548 5.04136 74.776 5.48649 74.776 5.97559C74.776 6.60941 74.9134 7.16628 75.19 7.64805C75.4666 8.12799 75.8494 8.50718 76.3385 8.78379C76.8276 9.06039 77.3918 9.19778 78.033 9.19778C78.3389 9.19778 78.6448 9.15565 78.9544 9.07139C79.2621 8.98712 79.5479 8.87355 79.8135 8.72883C80.0773 8.58412 80.3026 8.42109 80.4858 8.23607L79.9582 7.49051C79.6212 7.77994 79.3116 7.97595 79.0313 8.08036C78.7511 8.18478 78.4543 8.23607 78.1429 8.23607C77.6685 8.23607 77.2581 8.14081 76.9101 7.94847C76.562 7.75613 76.2909 7.48502 76.0986 7.13697C75.941 6.85121 75.8476 6.52514 75.8201 6.15694H80.7386L80.7514 5.68799ZM76.0619 4.65301C76.2305 4.31778 76.4723 4.06133 76.7892 3.88364C77.1061 3.70778 77.4853 3.61985 77.9249 3.61985C78.262 3.61985 78.5605 3.69496 78.8207 3.84151C79.0808 3.98989 79.2878 4.18773 79.4398 4.43136C79.5919 4.67682 79.6816 4.93877 79.7054 5.21904V5.30331H75.8586C75.8989 5.05967 75.9667 4.84352 76.0619 4.65301Z" fill="var(--fill-0, #001F33)"/>
<path id="Vector_13" d="M86.9292 0.180925V3.68888C86.7991 3.51303 86.6343 3.35183 86.4364 3.20528C86.2038 3.03126 85.9418 2.89753 85.6487 2.80228C85.3557 2.70519 85.0534 2.65756 84.742 2.65756C84.1723 2.65756 83.663 2.79861 83.2142 3.07888C82.7654 3.35915 82.4101 3.74567 82.15 4.23843C81.8898 4.73119 81.7598 5.29357 81.7598 5.92738C81.7598 6.56119 81.8898 7.12173 82.15 7.61083C82.4101 8.09993 82.7673 8.48645 83.2197 8.77038C83.674 9.05614 84.1888 9.1972 84.7658 9.1972C85.0626 9.1972 85.3502 9.14957 85.6304 9.05432C85.9107 8.95723 86.1598 8.82717 86.376 8.6623C86.5921 8.49927 86.7717 8.31426 86.9109 8.10909C86.9182 8.0981 86.9274 8.08528 86.9329 8.07429L86.942 9.07813H87.9752V0.180925H86.9292ZM86.7075 7.12906C86.5262 7.4826 86.2826 7.76104 85.973 7.96621C85.6652 8.16954 85.3062 8.27212 84.8977 8.27212C84.4892 8.27212 84.1283 8.16954 83.8151 7.96621C83.5037 7.76104 83.2582 7.4826 83.0823 7.12906C82.9065 6.77735 82.8186 6.37618 82.8186 5.92738C82.8186 5.47858 82.9083 5.06642 83.0879 4.71287C83.2692 4.36116 83.5147 4.08272 83.8279 3.87756C84.1393 3.67239 84.4965 3.57165 84.8977 3.57165C85.2989 3.57165 85.6671 3.67239 85.9803 3.87756C86.2917 4.08272 86.5372 4.36116 86.713 4.71287C86.8889 5.06642 86.9768 5.47125 86.9768 5.92738C86.9768 6.3835 86.8871 6.77735 86.7075 7.12906Z" fill="var(--fill-0, #001F33)"/>
<path id="Vector_14" d="M90.403 1.41969C90.1704 1.41969 89.9909 1.35741 89.8626 1.23284C89.7344 1.10828 89.6703 0.934256 89.6703 0.708941C89.6703 0.500112 89.7362 0.32975 89.8681 0.197858C90 0.0659663 90.1777 2.28882e-05 90.403 2.28882e-05C90.643 2.28882e-05 90.828 0.0623031 90.9562 0.186868C91.0845 0.311432 91.1486 0.485457 91.1486 0.708941C91.1486 0.917769 91.0826 1.08813 90.9507 1.22002C90.8188 1.35191 90.6357 1.41786 90.403 1.41786V1.41969ZM89.8993 9.07858V2.79173H90.9452V9.07858H89.8993Z" fill="var(--fill-0, #001F33)"/>
<path id="Vector_15" d="M98.6453 4.23294C98.3852 3.74384 98.0335 3.35915 97.5883 3.07888C97.1432 2.79861 96.6394 2.65756 96.0789 2.65756C95.7986 2.65756 95.5275 2.69969 95.2674 2.78396C95.0073 2.86822 94.7691 2.98546 94.553 3.1375C94.335 3.29137 94.1537 3.46357 94.0053 3.65591C93.9686 3.70354 93.9338 3.75299 93.9027 3.80245V0.180925H92.8567V9.07813H93.8917L93.9064 8.11825C93.9155 8.1329 93.9283 8.14939 93.9393 8.16404C94.0914 8.36371 94.2819 8.53957 94.5109 8.69161C94.738 8.84549 94.989 8.96639 95.2619 9.05981C95.533 9.1514 95.8151 9.1972 96.1027 9.1972C96.6559 9.1972 97.1542 9.05614 97.5993 8.77038C98.0445 8.48645 98.3943 8.0981 98.6526 7.60534C98.9091 7.11257 99.0373 6.54837 99.0373 5.91455C99.0373 5.28074 98.9054 4.72203 98.6453 4.23294ZM97.744 7.09975C97.5645 7.4478 97.3172 7.7244 97.004 7.92957C96.6926 8.1329 96.3354 8.23549 95.9342 8.23549C95.533 8.23549 95.1666 8.13657 94.8589 7.93506C94.5493 7.73539 94.3039 7.46062 94.1188 7.11257C93.9357 6.76269 93.8422 6.36519 93.8422 5.91455C93.8422 5.46392 93.9338 5.07924 94.1134 4.73119C94.2929 4.38315 94.5402 4.1102 94.8534 3.9142C95.1648 3.71819 95.5257 3.61927 95.9342 3.61927C96.3427 3.61927 96.7036 3.71819 97.0168 3.9142C97.33 4.1102 97.5737 4.38315 97.7495 4.73119C97.9254 5.07924 98.0152 5.47492 98.0152 5.91455C98.0152 6.35419 97.9254 6.7517 97.744 7.09975Z" fill="var(--fill-0, #001F33)"/>
<path id="Vector_16" d="M100.459 9.07813V0.180925H101.505V9.07813H100.459Z" fill="var(--fill-0, #001F33)"/>
<path id="Vector_17" d="M108.909 5.68799C108.925 5.24652 108.865 4.84169 108.729 4.47349C108.592 4.10529 108.398 3.78472 108.147 3.51178C107.894 3.23883 107.59 3.02635 107.238 2.8743C106.885 2.72226 106.5 2.64532 106.084 2.64532C105.628 2.64532 105.205 2.72775 104.816 2.89262C104.426 3.05748 104.095 3.28646 103.818 3.58322C103.541 3.87998 103.325 4.23169 103.168 4.63652C103.012 5.04136 102.933 5.48649 102.933 5.97559C102.933 6.60941 103.073 7.16628 103.349 7.64805C103.626 8.12799 104.009 8.50718 104.498 8.78379C104.987 9.06039 105.551 9.19778 106.192 9.19778C106.496 9.19778 106.804 9.15565 107.112 9.07139C107.421 8.98712 107.707 8.87355 107.971 8.72883C108.236 8.58412 108.46 8.42109 108.645 8.23607L108.116 7.49051C107.778 7.77994 107.471 7.97595 107.19 8.08036C106.91 8.18478 106.613 8.23607 106.3 8.23607C105.828 8.23607 105.417 8.14081 105.067 7.94847C104.719 7.75613 104.448 7.48502 104.256 7.13697C104.098 6.85121 104.007 6.52514 103.979 6.15694H108.898L108.909 5.68799ZM104.221 4.65301C104.39 4.31778 104.631 4.06133 104.948 3.88364C105.265 3.70778 105.643 3.61985 106.084 3.61985C106.421 3.61985 106.72 3.69496 106.98 3.84151C107.24 3.98989 107.447 4.18773 107.599 4.43136C107.751 4.67682 107.839 4.93877 107.863 5.21904V5.30331H104.018C104.058 5.05967 104.126 4.84352 104.221 4.65301Z" fill="var(--fill-0, #001F33)"/>
</g>
</svg>
