<svg preserveAspectRatio="none" width="100%" height="100%" overflow="visible" style="display: block;" viewBox="0 0 120 12" fill="none" xmlns="http://www.w3.org/2000/svg">
<g id="Group">
<path id="Vector" d="M4.40006 0.664039H3.23319L5.23662e-06 9.07947H1.1046L1.94907 6.85563H5.61274L6.45538 9.07947H7.62042L4.40006 0.664039ZM2.35208 5.79683L3.10129 3.82578C3.15625 3.65725 3.22036 3.4704 3.29364 3.26707C3.36508 3.0619 3.44018 2.85124 3.51529 2.63509C3.59222 2.41893 3.66367 2.20827 3.73144 2.00311C3.75159 1.94266 3.77174 1.88404 3.79006 1.82542C3.80288 1.86389 3.81571 1.90236 3.82853 1.94449C3.89631 2.15698 3.97325 2.38047 4.05751 2.61677C4.13994 2.85308 4.21688 3.07656 4.28466 3.28356C4.35244 3.49238 4.40739 3.65725 4.44769 3.77815L5.21156 5.79683H2.35208Z" fill="var(--fill-0, #001F33)"/>
<path id="Vector_2" d="M12.5029 2.7668L12.2263 3.90987C12.1218 3.86957 12.0138 3.8366 11.902 3.81278C11.7885 3.78897 11.6804 3.77798 11.5778 3.77798C11.3287 3.77798 11.0997 3.82377 10.8927 3.91537C10.6839 4.00696 10.5043 4.13519 10.356 4.30005C10.2094 4.46492 10.0922 4.65359 10.0079 4.86609C9.92365 5.07675 9.88152 5.30389 9.88152 5.54386V9.0793H8.82455V2.79062H9.87053L9.87786 3.97765C9.96212 3.7908 10.0739 3.61495 10.2131 3.45191C10.4164 3.21194 10.6582 3.0196 10.9348 2.87489C11.2096 2.732 11.5045 2.65873 11.8178 2.65873C11.9533 2.65873 12.0815 2.66972 12.2024 2.68804C12.3233 2.71002 12.4223 2.73566 12.5029 2.7668Z" fill="var(--fill-0, #001F33)"/>
<path id="Vector_3" d="M17.2434 2.79075V3.7891H15.7047V9.07943H14.6697V3.7891H13.2995V2.79075H14.6697V1.15676H15.7047V2.79075H17.2434Z" fill="var(--fill-0, #001F33)"/>
<path id="Vector_4" d="M18.988 1.41961C18.7554 1.41961 18.5759 1.35732 18.4476 1.23276C18.3194 1.10819 18.2553 0.93417 18.2553 0.708854C18.2553 0.500026 18.3212 0.329664 18.4531 0.197772C18.585 0.0658803 18.7627 -6.31711e-05 18.988 -6.31711e-05C19.228 -6.31711e-05 19.413 0.0622171 19.5412 0.186782C19.6695 0.311346 19.7336 0.485367 19.7336 0.710683C19.7336 0.919511 19.6676 1.08987 19.5357 1.22176C19.4038 1.35366 19.2207 1.41961 18.988 1.41961ZM18.4843 9.07849V2.79165H19.5302V9.07849H18.4843Z" fill="var(--fill-0, #001F33)"/>
<path id="Vector_5" d="M27.2187 0.188127C27.0905 0.0653946 26.9055 0.00311056 26.6655 0.00311056C26.4402 0.00311056 26.2625 0.0690596 26.1306 0.200951C25.9987 0.332843 25.9309 0.503199 25.9309 0.712028C25.9309 0.935512 25.9951 1.11137 26.1233 1.23593C26.2515 1.35867 26.4329 1.42095 26.6655 1.42095C26.8981 1.42095 27.0795 1.355 27.2114 1.22311C27.3451 1.09122 27.4111 0.920857 27.4111 0.712028C27.4111 0.488545 27.3469 0.312692 27.2187 0.188127ZM26.1599 2.79116V9.07984H27.2059V2.79116H26.1599Z" fill="var(--fill-0, #001F33)"/>
<path id="Vector_6" d="M23.0703 1.92552V2.86342H24.6347V3.82513H23.0703V9.07882H22.0243V3.82513H20.9545V2.86342H22.0243V1.92552C22.0243 1.58847 22.0994 1.29171 22.2478 1.03525C22.3962 0.778798 22.6032 0.577298 22.867 0.428919C23.1308 0.280541 23.4367 0.205436 23.7811 0.205436C24.0375 0.205436 24.272 0.254897 24.4845 0.350152C24.6951 0.447239 24.871 0.575463 25.0065 0.734832L24.6457 1.54084C24.5339 1.41994 24.4075 1.33018 24.2683 1.26973C24.1273 1.20928 23.9972 1.17997 23.8763 1.17997C23.7004 1.17997 23.5521 1.20745 23.4312 1.26423C23.3121 1.32102 23.2223 1.40345 23.1619 1.51703C23.1014 1.62877 23.0703 1.76432 23.0703 1.92552Z" fill="var(--fill-0, #001F33)"/>
<path id="Vector_7" d="M31.8235 9.19837C31.23 9.19837 30.7043 9.05548 30.2426 8.77155C29.781 8.48761 29.4165 8.0956 29.149 7.59917C28.8816 7.10275 28.746 6.54587 28.746 5.92855C28.746 5.31122 28.8798 4.74518 29.149 4.25242C29.4183 3.75966 29.7828 3.37131 30.2426 3.08555C30.7043 2.80161 31.2337 2.65873 31.8363 2.65873C32.3804 2.65873 32.8786 2.76681 33.3274 2.98296C33.7762 3.19912 34.1243 3.49954 34.3734 3.88422L33.7836 4.61695C33.6389 4.41728 33.463 4.24326 33.2542 4.09305C33.0453 3.94467 32.8255 3.82561 32.5929 3.73768C32.3602 3.64975 32.1276 3.60579 31.895 3.60579C31.4865 3.60579 31.1219 3.70653 30.8013 3.9062C30.4808 4.10587 30.2262 4.38248 30.0375 4.73602C29.8488 5.08957 29.7554 5.48524 29.7554 5.92671C29.7554 6.36818 29.8525 6.76203 30.0448 7.11008C30.2371 7.45813 30.4954 7.7329 30.8197 7.9344C31.1439 8.13407 31.5029 8.23482 31.895 8.23482C32.1276 8.23482 32.3529 8.19818 32.5746 8.12674C32.7944 8.0553 33.005 7.94356 33.2065 7.79702C33.4062 7.64864 33.5949 7.47095 33.7707 7.26212L34.3606 7.98386C34.0968 8.34473 33.7304 8.63783 33.267 8.86131C32.8017 9.08479 32.3218 9.19837 31.8235 9.19837Z" fill="var(--fill-0, #001F33)"/>
<path id="Vector_8" d="M36.2039 1.41961C35.9713 1.41961 35.7917 1.35732 35.6635 1.23276C35.5353 1.10819 35.4712 0.93417 35.4712 0.708854C35.4712 0.500026 35.5371 0.329664 35.669 0.197772C35.8009 0.0658803 35.9786 -6.31711e-05 36.2039 -6.31711e-05C36.4439 -6.31711e-05 36.6289 0.0622171 36.7571 0.186782C36.8853 0.311346 36.9494 0.485367 36.9494 0.710683C36.9494 0.919511 36.8835 1.08987 36.7516 1.22176C36.6197 1.35366 36.4365 1.41961 36.2039 1.41961ZM35.6983 9.07849V2.79165H36.7443V9.07849H35.6983Z" fill="var(--fill-0, #001F33)"/>
<path id="Vector_9" d="M43.394 2.79062L43.3776 3.83476C43.3721 3.82377 43.3647 3.81278 43.3574 3.80179C43.2127 3.57648 43.035 3.37864 42.8225 3.20645C42.61 3.03426 42.3646 2.90053 42.0879 2.80344C41.8113 2.70636 41.5091 2.65873 41.1812 2.65873C40.628 2.65873 40.1297 2.79978 39.6846 3.08005C39.2395 3.36032 38.8841 3.745 38.6203 4.2341C38.3565 4.7232 38.2228 5.28374 38.2228 5.91756C38.2228 6.55137 38.351 7.10275 38.6075 7.60101C38.8639 8.09743 39.212 8.48761 39.6479 8.77155C40.0858 9.05731 40.5712 9.19837 41.1097 9.19837C41.4138 9.19837 41.7051 9.15074 41.9872 9.05548C42.2675 8.9584 42.5239 8.82833 42.7566 8.66347C42.9892 8.50044 43.1815 8.31176 43.3336 8.09927C43.3501 8.07545 43.3666 8.05347 43.3812 8.02966V9.0793H44.4382V2.79062H43.394ZM43.1651 7.11374C42.9892 7.46179 42.7437 7.73473 42.4305 7.93074C42.1191 8.12674 41.7619 8.22566 41.3607 8.22566C40.9595 8.22566 40.5932 8.12491 40.2854 7.92524C39.9758 7.72374 39.734 7.44896 39.5582 7.10092C39.3823 6.75287 39.2944 6.35719 39.2944 5.91756C39.2944 5.47792 39.3823 5.08407 39.5582 4.73969C39.734 4.39531 39.9795 4.1242 40.2909 3.92819C40.6042 3.73035 40.9595 3.63326 41.3607 3.63326C41.7619 3.63326 42.1191 3.73035 42.4305 3.92819C42.7437 4.1242 42.9892 4.39531 43.1651 4.73969C43.3409 5.08407 43.4288 5.47608 43.4288 5.91756C43.4288 6.35903 43.3409 6.76386 43.1651 7.11374Z" fill="var(--fill-0, #001F33)"/>
<path id="Vector_10" d="M46.2444 9.07963V0.182426H47.2904V9.07963H46.2444Z" fill="var(--fill-0, #001F33)"/>
<path id="Vector_11" d="M53.0012 9.07947V8.07013H54.3605V1.67337H53.0012V0.664039H56.8005V1.67337H55.4412V8.07013H56.8005V9.07947H53.0012Z" fill="var(--fill-0, #001F33)"/>
<path id="Vector_12" d="M63.6028 5.25627V9.0793H62.5678V5.31672C62.5678 4.92287 62.5165 4.59864 62.4121 4.34218C62.3077 4.08572 62.1483 3.89705 61.9304 3.77798C61.7142 3.65708 61.4504 3.60029 61.1372 3.60945C60.8734 3.60945 60.6334 3.65341 60.4154 3.74134C60.1993 3.82927 60.0088 3.94833 59.8457 4.09488C59.6809 4.24326 59.5545 4.41912 59.4665 4.61879C59.3786 4.81846 59.3346 5.03095 59.3346 5.25627V9.0793H58.2887V2.79062H59.3218L59.3401 3.81645C59.4207 3.68089 59.5233 3.55083 59.6461 3.4281C59.8787 3.19546 60.1553 3.01044 60.4759 2.86939C60.7964 2.73017 61.1298 2.65873 61.4742 2.65873C61.9468 2.65873 62.3425 2.75032 62.6594 2.93533C62.9745 3.12035 63.2108 3.40428 63.3683 3.78897C63.524 4.17365 63.6028 4.66275 63.6028 5.25627Z" fill="var(--fill-0, #001F33)"/>
<path id="Vector_13" d="M68.6607 2.79075V3.7891H67.122V9.07943H66.0888V3.7891H64.7186V2.79075H66.0888V1.15676H67.122V2.79075H68.6607Z" fill="var(--fill-0, #001F33)"/>
<path id="Vector_14" d="M75.3055 5.68925C75.322 5.24961 75.2615 4.84295 75.126 4.47475C74.9886 4.10655 74.7944 3.78598 74.5416 3.51304C74.2907 3.24009 73.9866 3.0276 73.6349 2.87556C73.2813 2.72352 72.8966 2.64841 72.4808 2.64841C72.0229 2.64841 71.6015 2.73084 71.2114 2.89388C70.823 3.05874 70.4914 3.28955 70.2148 3.58631C69.9382 3.88123 69.7221 4.23295 69.5645 4.63778C69.4088 5.04262 69.3301 5.48958 69.3301 5.97868C69.3301 6.61066 69.4693 7.16754 69.7459 7.64931C70.0225 8.12925 70.4054 8.50844 70.8926 8.78505C71.3817 9.06165 71.9477 9.19904 72.5889 9.19904C72.893 9.19904 73.1989 9.15874 73.5085 9.07264C73.8162 8.99021 74.1038 8.87481 74.3676 8.73193C74.6332 8.58721 74.8567 8.42234 75.0417 8.23733L74.5123 7.49361C74.1753 7.7812 73.8675 7.97721 73.5872 8.08162C73.3051 8.18604 73.0102 8.23733 72.697 8.23733C72.2244 8.23733 71.814 8.14207 71.4642 7.94973C71.1161 7.75739 70.845 7.48628 70.6527 7.13823C70.4951 6.8543 70.4035 6.5264 70.376 6.1582H75.2945L75.3055 5.68925ZM70.6178 4.6561C70.7845 4.31905 71.0282 4.06259 71.3451 3.88673C71.6602 3.70904 72.0393 3.62111 72.4808 3.62111C72.8179 3.62111 73.1165 3.69622 73.3766 3.8446C73.6367 3.99298 73.8437 4.18899 73.9957 4.43262C74.1478 4.67808 74.2357 4.94003 74.2595 5.2203V5.30457H70.4127C70.4548 5.06276 70.5226 4.84661 70.6178 4.6561Z" fill="var(--fill-0, #001F33)"/>
<path id="Vector_15" d="M76.728 9.07963V0.182426H77.774V9.07963H76.728Z" fill="var(--fill-0, #001F33)"/>
<path id="Vector_16" d="M79.5828 9.07963V0.182426H80.6288V9.07963H79.5828Z" fill="var(--fill-0, #001F33)"/>
<path id="Vector_17" d="M83.0608 1.41961C82.8282 1.41961 82.6486 1.35732 82.5204 1.23276C82.3922 1.10819 82.3281 0.93417 82.3281 0.708854C82.3281 0.500026 82.394 0.329664 82.5259 0.197772C82.6578 0.0658803 82.8355 -6.31711e-05 83.0608 -6.31711e-05C83.3008 -6.31711e-05 83.4858 0.0622171 83.614 0.186782C83.7422 0.311346 83.8064 0.485367 83.8064 0.710683C83.8064 0.919511 83.7404 1.08987 83.6085 1.22176C83.4766 1.35366 83.2934 1.41961 83.0608 1.41961ZM82.557 9.07849V2.79165H83.603V9.07849H82.557Z" fill="var(--fill-0, #001F33)"/>
<path id="Vector_18" d="M90.3827 2.79062L90.3662 3.76149C90.2691 3.62594 90.1519 3.49771 90.0145 3.37497C89.8588 3.23392 89.6829 3.10936 89.4869 3.00128C89.2891 2.8932 89.0766 2.80894 88.8495 2.74849C88.6205 2.68804 88.386 2.65873 88.146 2.65873C87.569 2.65873 87.0488 2.79978 86.589 3.08005C86.1274 3.36032 85.7628 3.74683 85.4954 4.2396C85.2261 4.73236 85.0924 5.29656 85.0924 5.92855C85.0924 6.56053 85.2261 7.1229 85.4954 7.612C85.7628 8.1011 86.1274 8.48761 86.589 8.77155C87.0488 9.05731 87.5763 9.19836 88.1699 9.19836C88.5381 9.19836 88.8934 9.12326 89.2342 8.97122C89.5749 8.81918 89.8588 8.61768 90.0878 8.37038C90.2105 8.23666 90.3076 8.09927 90.3827 7.95638V8.76605C90.3827 9.23866 90.3003 9.63251 90.1354 9.94392C89.9705 10.2572 89.7324 10.4935 89.421 10.6547C89.1078 10.814 88.7231 10.8946 88.2651 10.8946C88.0178 10.8946 87.7705 10.8653 87.5269 10.8104C87.2814 10.7536 87.0543 10.6785 86.8418 10.5814C86.6293 10.4861 86.4424 10.3726 86.2831 10.2443L85.8856 11.087C86.1585 11.3031 86.5066 11.4827 86.9315 11.6274C87.3565 11.7721 87.7962 11.8435 88.2541 11.8435C88.7432 11.8435 89.181 11.7739 89.5712 11.6329C89.9596 11.4937 90.2911 11.2885 90.5677 11.021C90.8443 10.7518 91.0568 10.4239 91.2052 10.0355C91.3536 9.64533 91.4269 9.19836 91.4269 8.69461V2.79062H90.3827ZM90.1482 7.11924C89.9669 7.46362 89.7141 7.73473 89.3899 7.93074C89.0656 8.12674 88.6993 8.22566 88.2908 8.22566C87.8823 8.22566 87.5049 8.12491 87.1843 7.92524C86.8638 7.72374 86.611 7.44896 86.426 7.10092C86.2428 6.75287 86.1493 6.36269 86.1493 5.92855C86.1493 5.4944 86.2428 5.09323 86.426 4.74518C86.611 4.39714 86.8638 4.12236 87.1843 3.92086C87.5049 3.72119 87.8731 3.62044 88.2908 3.62044C88.7084 3.62044 89.0638 3.71936 89.3844 3.91537C89.7049 4.11137 89.9577 4.38431 90.1409 4.73236C90.3259 5.08224 90.4175 5.47975 90.4175 5.92855C90.4175 6.37734 90.3278 6.77485 90.1482 7.11924Z" fill="var(--fill-0, #001F33)"/>
<path id="Vector_19" d="M98.8035 5.68925C98.82 5.24961 98.7596 4.84295 98.624 4.47475C98.4885 4.10655 98.2943 3.78598 98.0415 3.51304C97.7887 3.24009 97.4864 3.0276 97.1329 2.87556C96.7812 2.72352 96.3965 2.64841 95.9788 2.64841C95.5227 2.64841 95.0996 2.73084 94.7112 2.89388C94.321 3.05874 93.9895 3.28955 93.7129 3.58631C93.4363 3.88123 93.2201 4.23295 93.0644 4.63778C92.9069 5.04262 92.8299 5.48958 92.8299 5.97868C92.8299 6.61066 92.9673 7.16754 93.2439 7.64931C93.5205 8.12925 93.9034 8.50844 94.3925 8.78505C94.8816 9.06165 95.4458 9.19904 96.0869 9.19904C96.391 9.19904 96.6988 9.15874 97.0065 9.07264C97.3161 8.99021 97.6018 8.87481 97.8675 8.73193C98.1312 8.58721 98.3547 8.42234 98.5398 8.23733L98.0103 7.49361C97.6733 7.7812 97.3655 7.97721 97.0853 8.08162C96.805 8.18604 96.5083 8.23733 96.195 8.23733C95.7224 8.23733 95.3121 8.14207 94.964 7.94973C94.6141 7.75739 94.3449 7.48628 94.1525 7.13823C93.995 6.8543 93.9015 6.5264 93.8741 6.1582H98.7925L98.8035 5.68925ZM94.1159 4.6561C94.2844 4.31905 94.5262 4.06259 94.8431 3.88673C95.16 3.70904 95.5374 3.62111 95.9788 3.62111C96.3159 3.62111 96.6145 3.69622 96.8746 3.8446C97.1347 3.99298 97.3417 4.18899 97.4938 4.43262C97.6458 4.67808 97.7337 4.94003 97.7576 5.2203V5.30457H93.9107C93.9528 5.06276 94.0206 4.84661 94.1159 4.6561Z" fill="var(--fill-0, #001F33)"/>
<path id="Vector_20" d="M105.536 5.25627V9.0793H104.503V5.31672C104.503 4.92287 104.449 4.59864 104.345 4.34218C104.241 4.08572 104.081 3.89705 103.865 3.77798C103.649 3.65708 103.383 3.60029 103.072 3.60945C102.806 3.60945 102.566 3.65341 102.35 3.74134C102.134 3.82927 101.943 3.94833 101.779 4.09488C101.614 4.24326 101.487 4.41912 101.399 4.61879C101.311 4.81846 101.268 5.03095 101.268 5.25627V9.0793H100.222V2.79062H101.257L101.275 3.81645C101.355 3.68089 101.458 3.55083 101.581 3.4281C101.813 3.19546 102.09 3.01044 102.411 2.86939C102.731 2.73017 103.063 2.65873 103.407 2.65873C103.88 2.65873 104.275 2.75032 104.592 2.93533C104.909 3.12035 105.145 3.40428 105.301 3.78897C105.457 4.17365 105.536 4.66275 105.536 5.25627Z" fill="var(--fill-0, #001F33)"/>
<path id="Vector_21" d="M109.994 9.19837C109.4 9.19837 108.875 9.05548 108.413 8.77155C107.951 8.48761 107.587 8.0956 107.32 7.59917C107.052 7.10275 106.917 6.54587 106.917 5.92855C106.917 5.31122 107.05 4.74518 107.32 4.25242C107.589 3.75966 107.953 3.37131 108.413 3.08555C108.875 2.80161 109.404 2.65873 110.007 2.65873C110.551 2.65873 111.049 2.76681 111.498 2.98296C111.947 3.19912 112.295 3.49954 112.544 3.88422L111.954 4.61695C111.809 4.41728 111.633 4.24326 111.425 4.09305C111.216 3.94467 110.996 3.82561 110.763 3.73768C110.531 3.64975 110.298 3.60579 110.065 3.60579C109.657 3.60579 109.292 3.70653 108.972 3.9062C108.651 4.10587 108.397 4.38248 108.208 4.73602C108.019 5.08957 107.926 5.48524 107.926 5.92671C107.926 6.36818 108.023 6.76203 108.215 7.11008C108.408 7.45813 108.666 7.7329 108.99 7.9344C109.314 8.13407 109.673 8.23482 110.065 8.23482C110.298 8.23482 110.523 8.19818 110.745 8.12674C110.965 8.0553 111.176 7.94356 111.377 7.79702C111.577 7.64864 111.765 7.47095 111.941 7.26212L112.531 7.98386C112.267 8.34473 111.901 8.63783 111.437 8.86131C110.972 9.08479 110.492 9.19837 109.994 9.19837Z" fill="var(--fill-0, #001F33)"/>
<path id="Vector_22" d="M119.257 5.68925C119.273 5.24961 119.213 4.84295 119.077 4.47475C118.94 4.10655 118.746 3.78598 118.495 3.51304C118.242 3.24009 117.94 3.0276 117.586 2.87556C117.234 2.72352 116.85 2.64841 116.432 2.64841C115.976 2.64841 115.553 2.73084 115.164 2.89388C114.774 3.05874 114.443 3.28955 114.166 3.58631C113.889 3.88123 113.673 4.23295 113.517 4.63778C113.36 5.04262 113.283 5.48958 113.283 5.97868C113.283 6.61066 113.42 7.16754 113.697 7.64931C113.974 8.12925 114.356 8.50844 114.846 8.78505C115.335 9.06165 115.899 9.19904 116.54 9.19904C116.844 9.19904 117.152 9.15874 117.46 9.07264C117.769 8.99021 118.055 8.87481 118.319 8.73193C118.584 8.58721 118.808 8.42234 118.993 8.23733L118.463 7.49361C118.126 7.7812 117.819 7.97721 117.538 8.08162C117.258 8.18604 116.961 8.23733 116.648 8.23733C116.175 8.23733 115.765 8.14207 115.417 7.94973C115.067 7.75739 114.798 7.48628 114.604 7.13823C114.446 6.8543 114.355 6.5264 114.327 6.1582H119.246L119.257 5.68925ZM114.569 4.6561C114.737 4.31905 114.979 4.06259 115.296 3.88673C115.613 3.70904 115.99 3.62111 116.432 3.62111C116.769 3.62111 117.068 3.69622 117.328 3.8446C117.588 3.99298 117.795 4.18899 117.947 4.43262C118.099 4.67808 118.187 4.94003 118.211 5.2203V5.30457H114.366C114.406 5.06276 114.474 4.84661 114.569 4.6561Z" fill="var(--fill-0, #001F33)"/>
</g>
</svg>
