<svg preserveAspectRatio="none" width="100%" height="100%" overflow="visible" style="display: block;" viewBox="0 0 106 108" fill="none" xmlns="http://www.w3.org/2000/svg">
<g id="Group 487085">
<path id="Ellipse 46" d="M9.68164 0.75C14.6142 0.75014 18.6123 4.74896 18.6123 9.68164C18.6123 14.6143 14.6141 18.6131 9.68164 18.6133C4.74902 18.6133 0.750051 14.6144 0.75 9.68164C0.75 4.74887 4.74899 0.75 9.68164 0.75Z" stroke="var(--stroke-0, #001F33)" stroke-width="1.5"/>
<path id="Ellipse 51" d="M9.68164 30.2942C14.6142 30.2944 18.6123 34.2932 18.6123 39.2259C18.6123 44.1585 14.6141 48.1574 9.68164 48.1575C4.74902 48.1575 0.750051 44.1586 0.75 39.2259C0.75 34.2931 4.74899 30.2942 9.68164 30.2942Z" stroke="var(--stroke-0, #001F33)" stroke-width="1.5"/>
<path id="Ellipse 56" d="M9.68164 59.8427C14.6142 59.8428 18.6123 63.8416 18.6123 68.7743C18.6123 73.707 14.6141 77.7058 9.68164 77.706C4.74902 77.706 0.750051 73.707 0.75 68.7743C0.75 63.8415 4.74899 59.8427 9.68164 59.8427Z" stroke="var(--stroke-0, #001F33)" stroke-width="1.5"/>
<path id="Ellipse 61" d="M9.68164 89.3869C14.6142 89.387 18.6123 93.3859 18.6123 98.3185C18.6123 103.251 14.6141 107.25 9.68164 107.25C4.74902 107.25 0.750051 103.251 0.75 98.3185C0.75 93.3858 4.74899 89.3869 9.68164 89.3869Z" stroke="var(--stroke-0, #001F33)" stroke-width="1.5"/>
<path id="Ellipse 47" d="M38.3692 0.75C43.3018 0.75014 47.2999 4.74896 47.2999 9.68164C47.2998 14.6143 43.3017 18.6131 38.3692 18.6133C33.4366 18.6133 29.4376 14.6144 29.4376 9.68164C29.4376 4.74887 33.4366 0.75 38.3692 0.75Z" stroke="var(--stroke-0, #001F33)" stroke-width="1.5"/>
<path id="Ellipse 52" d="M38.3692 30.2942C43.3018 30.2944 47.2999 34.2932 47.2999 39.2259C47.2998 44.1585 43.3017 48.1574 38.3692 48.1575C33.4366 48.1575 29.4376 44.1586 29.4376 39.2259C29.4376 34.2931 33.4366 30.2942 38.3692 30.2942Z" stroke="var(--stroke-0, #001F33)" stroke-width="1.5"/>
<path id="Ellipse 57" d="M38.3692 59.8427C43.3018 59.8428 47.2999 63.8416 47.2999 68.7743C47.2998 73.707 43.3017 77.7058 38.3692 77.706C33.4366 77.706 29.4376 73.707 29.4376 68.7743C29.4376 63.8415 33.4366 59.8427 38.3692 59.8427Z" stroke="var(--stroke-0, #001F33)" stroke-width="1.5"/>
<path id="Ellipse 62" d="M38.3692 89.3869C43.3018 89.387 47.2999 93.3859 47.2999 98.3185C47.2998 103.251 43.3017 107.25 38.3692 107.25C33.4366 107.25 29.4376 103.251 29.4376 98.3185C29.4376 93.3858 33.4366 89.3869 38.3692 89.3869Z" stroke="var(--stroke-0, #001F33)" stroke-width="1.5"/>
<path id="Ellipse 48" d="M67.0653 0.75C71.9978 0.75014 75.9959 4.74896 75.9959 9.68164C75.9959 14.6143 71.9978 18.6131 67.0653 18.6133C62.1326 18.6133 58.1337 14.6144 58.1336 9.68164C58.1336 4.74887 62.1326 0.75 67.0653 0.75Z" stroke="var(--stroke-0, #001F33)" stroke-width="1.5"/>
<path id="Ellipse 53" d="M67.0653 30.2942C71.9978 30.2944 75.9959 34.2932 75.9959 39.2259C75.9959 44.1585 71.9978 48.1574 67.0653 48.1575C62.1326 48.1575 58.1337 44.1586 58.1336 39.2259C58.1336 34.2931 62.1326 30.2942 67.0653 30.2942Z" stroke="var(--stroke-0, #001F33)" stroke-width="1.5"/>
<path id="Ellipse 58" d="M67.0653 59.8427C71.9978 59.8428 75.9959 63.8416 75.9959 68.7743C75.9959 73.707 71.9978 77.7058 67.0653 77.706C62.1326 77.706 58.1337 73.707 58.1336 68.7743C58.1336 63.8415 62.1326 59.8427 67.0653 59.8427Z" stroke="var(--stroke-0, #001F33)" stroke-width="1.5"/>
<path id="Ellipse 63" d="M67.0653 89.3869C71.9978 89.387 75.9959 93.3859 75.9959 98.3185C75.9959 103.251 71.9978 107.25 67.0653 107.25C62.1326 107.25 58.1337 103.251 58.1336 98.3185C58.1336 93.3858 62.1326 89.3869 67.0653 89.3869Z" stroke="var(--stroke-0, #001F33)" stroke-width="1.5"/>
<ellipse id="Ellipse 49" cx="95.7442" cy="9.68155" rx="9.68138" ry="9.68155" fill="var(--fill-0, #001F33)"/>
<path id="Ellipse 54" d="M95.7444 30.2942C100.677 30.2944 104.675 34.2932 104.675 39.2259C104.675 44.1585 100.677 48.1574 95.7444 48.1575C90.8118 48.1575 86.8128 44.1586 86.8128 39.2259C86.8128 34.2931 90.8118 30.2942 95.7444 30.2942Z" stroke="var(--stroke-0, #001F33)" stroke-width="1.5"/>
<path id="Ellipse 59" d="M95.7444 59.8427C100.677 59.8428 104.675 63.8416 104.675 68.7743C104.675 73.707 100.677 77.7058 95.7444 77.706C90.8118 77.706 86.8128 73.707 86.8128 68.7743C86.8128 63.8415 90.8118 59.8427 95.7444 59.8427Z" stroke="var(--stroke-0, #001F33)" stroke-width="1.5"/>
<path id="Ellipse 64" d="M95.7444 89.3869C100.677 89.387 104.675 93.3859 104.675 98.3185C104.675 103.251 100.677 107.25 95.7444 107.25C90.8118 107.25 86.8128 103.251 86.8128 98.3185C86.8128 93.3858 90.8118 89.3869 95.7444 89.3869Z" stroke="var(--stroke-0, #001F33)" stroke-width="1.5"/>
</g>
</svg>
