<svg preserveAspectRatio="none" width="100%" height="100%" overflow="visible" style="display: block;" viewBox="0 0 23 23" fill="none" xmlns="http://www.w3.org/2000/svg">
<g id="GoogleScholar">
<path id="Vector" d="M11.143 22.2857C14.7329 22.2857 17.643 19.3756 17.643 15.7857C17.643 12.1959 14.7329 9.28572 11.143 9.28572C7.55316 9.28572 4.64302 12.1959 4.64302 15.7857C4.64302 19.3756 7.55316 22.2857 11.143 22.2857Z" fill="var(--fill-0, #001F33)"/>
<path id="Subtract" d="M11.1426 9.28613C8.51829 9.28654 6.25852 10.8427 5.23242 13.082L5.23047 13.0801C6.25712 10.8414 8.51771 9.28626 11.1416 9.28613H11.1426ZM22.2852 8.82129L18.3184 12.0498C16.9684 9.46207 14.2623 7.69434 11.1416 7.69434C8.02119 7.69446 5.31398 9.46137 3.96387 12.0488L0 8.82129L11.1426 0L22.2852 8.82129Z" fill="var(--fill-0, #001F33)"/>
</g>
</svg>
