<svg preserveAspectRatio="none" width="100%" height="100%" overflow="visible" style="display: block;" viewBox="0 0 20 21" fill="none" xmlns="http://www.w3.org/2000/svg">
<g id="Linkedin">
<path id="path14" d="M-0.00178909 1.4422C-0.00178909 0.646146 0.659898 0.000431169 1.47617 0.000431169H18.5202C19.3365 0.000431169 19.9982 0.646146 19.9982 1.4422V18.6856C19.9982 19.4819 19.3365 20.1273 18.5202 20.1273H1.47617C0.659898 20.1273 -0.00178909 19.4819 -0.00178909 18.6856V1.4422Z" fill="var(--fill-0, #001F33)"/>
<path id="path28" fill-rule="evenodd" clip-rule="evenodd" d="M6.06016 16.8482V7.75977H3.03934V16.8482H6.06016ZM4.54974 6.5189C5.60316 6.5189 6.25883 5.82101 6.25883 4.94885C6.2392 4.05706 5.60316 3.37853 4.56972 3.37853C3.53639 3.37853 2.86077 4.05706 2.86077 4.94885C2.86077 5.82101 3.51629 6.5189 4.53005 6.5189H4.54974Z" fill="var(--fill-0, white)"/>
<path id="path30" fill-rule="evenodd" clip-rule="evenodd" d="M7.73361 16.8482H10.7544V11.7728C10.7544 11.5012 10.774 11.2298 10.8538 11.0357C11.0722 10.493 11.5692 9.93089 12.4037 9.93089C13.4968 9.93089 13.9341 10.7643 13.9341 11.9861V16.8482H16.9546V11.637C16.9546 8.84546 15.4643 7.5465 13.4769 7.5465C11.8472 7.5465 11.1318 8.45739 10.7343 9.07782H10.7545V7.75977H7.73369C7.77333 8.61256 7.73361 16.8482 7.73361 16.8482Z" fill="var(--fill-0, white)"/>
</g>
</svg>
