<svg preserveAspectRatio="none" width="100%" height="100%" overflow="visible" style="display: block;" viewBox="0 0 20 20" fill="none" xmlns="http://www.w3.org/2000/svg">
<path id="Vector" fill-rule="evenodd" clip-rule="evenodd" d="M0 10V20L9.99662 19.9966L19.9932 19.9932L19.9966 9.99662L20 0H10H0V10ZM0.00669811 10.0067C0.00669811 15.5067 0.0082345 17.7567 0.0101078 15.0067C0.0119811 12.2567 0.0119811 7.75673 0.0101078 5.00674C0.0082345 2.25674 0.00669811 4.50674 0.00669811 10.0067ZM4.10097 4.08294C4.14122 4.14042 5.07351 5.49831 6.17273 7.10047C7.27195 8.70262 8.28862 10.1843 8.43202 10.393C8.5754 10.6018 8.69272 10.7768 8.69272 10.7819C8.69272 10.7871 8.63932 10.8529 8.57406 10.9283C8.50881 11.0037 8.32499 11.2171 8.16561 11.4026C8.00622 11.588 7.73753 11.9005 7.56851 12.0971C7.39951 12.2937 7.10218 12.6396 6.90777 12.8658C6.71338 13.092 6.3638 13.4988 6.13093 13.7696C5.4107 14.6075 5.30676 14.7285 4.7585 15.3675C4.46575 15.7087 4.18502 16.0349 4.13467 16.0925C4.08432 16.15 4.04312 16.2031 4.04312 16.2105C4.04312 16.2191 4.22701 16.2239 4.5612 16.2239H5.07926L5.64881 15.5597C5.96207 15.1944 6.27109 14.8348 6.33551 14.7606C6.47482 14.6002 7.53722 13.3632 7.62652 13.2574C7.66071 13.2169 7.71037 13.1593 7.73688 13.1293C7.7634 13.0994 7.97242 12.8564 8.20137 12.5893C8.4303 12.3223 8.62392 12.0973 8.63158 12.0893C8.63927 12.0813 8.76047 11.9402 8.90092 11.7757C9.04138 11.6113 9.16064 11.4767 9.16594 11.4767C9.17125 11.4767 9.89276 12.5221 10.7693 13.7997C11.6459 15.0774 12.3787 16.1453 12.3978 16.173L12.4326 16.2233L14.2097 16.2236C15.671 16.2238 15.9855 16.2207 15.9799 16.2062C15.974 16.1907 15.1226 14.948 12.9383 11.7667C11.3659 9.47651 11.1568 9.16876 11.1628 9.15314C11.1687 9.13796 11.3828 8.88729 12.7909 7.2477C13.0324 6.96645 13.3654 6.57855 13.5308 6.3857C13.6962 6.19285 13.8632 5.99865 13.9019 5.95414C13.9406 5.90964 14.1441 5.67296 14.3542 5.42818C14.5642 5.18341 14.9213 4.7675 15.1477 4.50393C15.3741 4.24037 15.5676 4.01432 15.5778 4.00158C15.5952 3.97977 15.5656 3.97842 15.0701 3.97842H14.5438L14.3098 4.25151C13.9983 4.61497 13.4352 5.27038 13.2753 5.45559C13.2047 5.53742 13.1166 5.64027 13.0795 5.68412C13.0424 5.72798 12.9693 5.81274 12.917 5.87248C12.8647 5.93223 12.6011 6.23904 12.3312 6.55428C12.0614 6.86952 11.8369 7.13047 11.8323 7.13418C11.8278 7.13789 11.77 7.20501 11.7038 7.28335C11.5881 7.42037 11.4704 7.55753 10.9303 8.18428C10.6932 8.4594 10.6811 8.47122 10.6611 8.44593C10.6496 8.43136 9.95484 7.42026 9.11724 6.19907L7.59433 3.9787L5.81106 3.97855L4.02779 3.97842L4.10097 4.08294ZM5.49279 4.81108C5.50618 4.83154 5.83936 5.3095 6.2332 5.87323C6.98014 6.94236 9.91532 11.1461 11.803 13.8503C12.4062 14.7144 12.9071 15.4291 12.9161 15.4384C12.9289 15.4517 13.1046 15.4546 13.7367 15.4519L14.5411 15.4484L12.4363 12.4342C11.2787 10.7765 9.60269 8.37626 8.71183 7.10047L7.09207 4.78085L6.28027 4.77737L5.46846 4.77389L5.49279 4.81108Z" fill="var(--fill-0, #001F33)"/>
</svg>
